<svg width="335" height="333" viewBox="0 0 335 333" fill="none" xmlns="http://www.w3.org/2000/svg">
<path d="M149.848 154.167C154.506 156.123 151.45 163.896 144.927 166.491C141.101 168.015 126.827 168.911 126.079 167.713C121.539 160.341 139.683 149.977 149.848 154.167Z" fill="#64A2FF"/>
<path d="M203.472 130.191C190.067 135.123 96.5856 146.434 87.809 144.266C83.0543 143.107 86.7048 134.432 92.639 132.616C99.515 130.403 169.743 123.787 202.018 122.685C206.463 122.477 207.608 128.617 203.472 130.191Z" fill="#64A2FF"/>
<path d="M82.6576 247.869C68.0728 250.232 64.286 249.478 66.0983 244.739C69.5943 235.381 78.4201 236.442 91.2127 234.198C99.9657 232.731 94.3853 246.017 82.6576 247.869Z" fill="#64A2FF"/>
<path d="M99.3975 209.427C109.329 206.401 125.39 204.092 145.837 202.928C154.546 202.445 171.517 200.478 183.555 198.576C205.025 195.171 207.679 195.083 206.264 197.803C205.112 200.163 204.549 200.327 170.654 207.406C136.636 214.481 111.051 218.968 98.19 219.977C82.0495 221.298 86.2824 213.383 99.3975 209.427Z" fill="#64A2FF"/>
<path d="M114.19 232.942C121.354 231.171 136.356 229.131 168.286 224.69C212.429 218.539 239.133 213.846 244.231 214.217L248.039 214.479C247.334 219.258 247.545 222.839 234.447 226.426C216.853 231.328 148.121 240.34 120.634 241.863C105.248 242.842 103.349 235.626 114.19 232.942Z" fill="#64A2FF"/>
<path d="M68.5287 199.677C56.9677 200.549 56.5398 200.472 57.3405 196.312C58.9309 188.24 84.9149 180.317 86.2567 187.573C87.5505 194.519 81.3842 198.791 68.5287 199.677Z" fill="#64A2FF"/>
<path d="M324.818 163.014C318.075 164.985 163.77 188.985 113.893 193.818C92.6053 195.875 99.2196 187.061 111.714 183.205C127.708 178.245 139.929 180.539 265.056 160.094C315.203 151.945 330.049 150.639 333.342 154.208C335.34 156.375 330.436 161.371 324.818 163.014Z" fill="#64A2FF"/>
<path d="M227.167 146.085C237.647 145.974 261.358 143.452 267.928 142.582C270.833 142.38 267.228 147.238 263.863 148.101C206.471 162.577 145.895 166.896 157.459 156.231C162.277 151.787 199.494 146.246 227.167 146.085Z" fill="#64A2FF"/>
<path d="M246.965 127.588C222.486 133.532 216.463 133.19 219.508 125.663C221.926 119.776 223.74 119.165 243.422 117.173C269.23 114.603 266.211 122.931 246.965 127.588Z" fill="#64A2FF"/>
<path d="M91.1751 111.434C79.6238 113.476 75.8806 111.738 78.379 105.423C81.0222 98.6209 91.1571 95.1716 100.03 97.9591C104.645 99.4826 97.5099 110.31 91.1751 111.434Z" fill="#64A2FF"/>
<path d="M219.017 99.2195C207.247 100.638 179.096 103.245 151.355 107.716C112.94 113.891 103.488 113.053 108.808 104.254C112.065 98.8909 128.126 96.5817 161.25 97.1739C173.254 97.427 202.404 95.9033 217.314 94.5376C225.42 93.7861 226.946 98.2768 219.017 99.2195Z" fill="#64A2FF"/>
</svg>
