<svg width="230" height="230" viewBox="0 0 230 230" fill="none" xmlns="http://www.w3.org/2000/svg">
<path d="M33.8065 205.065L15.7407 2.42938H214.259L196.176 205.034L114.88 227.572L33.8065 205.065Z" fill="#1572B6"/>
<path d="M115.002 210.346L180.694 192.133L196.149 18.9966H115.002V210.346Z" fill="#33A9DC"/>
<path d="M115.002 92.4115H147.888L150.16 66.9623H115.002V42.1097H177.321L176.725 48.7779L170.615 117.264H115.002V92.4115Z" fill="white"/>
<path d="M115.149 156.955L115.039 156.988L87.3621 149.514L85.5922 129.693H60.6479L64.1285 168.716L115.036 182.845L115.149 182.812V156.955Z" fill="#EBEBEB"/>
<path d="M145.775 116.213L142.782 149.495L115.063 156.977V182.834L166.012 168.714L166.385 164.515L170.709 116.213H145.775Z" fill="white"/>
<path d="M115.086 42.1097V66.9623H55.0561L54.5583 61.3776L53.4263 48.7779L52.8315 42.1097H115.086ZM115.002 92.4151V117.268H87.6729L87.1752 111.683L86.0414 99.0833L85.4484 92.4151H115.002Z" fill="#EBEBEB"/>
</svg>
