<svg width="273" height="272" viewBox="0 0 273 272" fill="none" xmlns="http://www.w3.org/2000/svg">
<g clip-path="url(#clip0_419_306)">
<path d="M126.121 112.356H147.229L152.473 105.174V48.9323H120.881V105.181L126.121 112.356ZM112.517 137.441L119.038 117.476L113.792 110.298L60.0136 92.9173L50.2524 122.801L104.038 140.183L112.517 137.442M132.299 158.066L115.225 145.725L106.737 148.468L73.5015 193.972L99.0591 212.439L132.299 166.935V158.066ZM158.13 145.722L141.052 158.063L141.056 166.938L174.292 212.439L199.851 193.971L166.609 148.464L158.131 145.723M154.31 117.472L160.833 137.44L169.319 140.18L223.099 122.801L213.335 92.9152L159.554 110.299L154.31 117.472Z" fill="#8A4182"/>
<path d="M136.681 0.113065C61.5479 0.113065 0.419922 60.9067 0.419922 135.629C0.419922 210.379 61.5479 271.188 136.683 271.188C211.81 271.188 272.932 210.379 272.932 135.629C272.932 60.9056 211.81 0.113065 136.683 0.113065H136.681ZM136.681 27.5531C196.683 27.5531 245.339 75.9339 245.339 135.628C245.339 195.343 196.683 243.745 136.681 243.745C76.6609 243.745 28.01 195.343 28.01 135.628C28.01 75.9339 76.6609 27.5531 136.682 27.5531H136.681Z" fill="#8A4182"/>
<path d="M219.209 165.75L178.328 152.538L181.031 144.255L221.912 157.468L219.209 165.75ZM167.071 100.469L159.985 95.3515L185.25 60.7605L192.334 65.8795L167.071 100.469ZM106.719 100.155L81.4581 65.5627L88.5428 60.4448L113.804 95.0347L106.719 100.155ZM53.9747 165.234L51.2705 156.951L92.1469 143.744L94.8522 152.027L53.9747 165.234ZM132.028 222.036H140.784V179.279H132.03L132.028 222.036Z" fill="#8A4182"/>
</g>
<defs>
<clipPath id="clip0_419_306">
<rect width="273" height="272" fill="white"/>
</clipPath>
</defs>
</svg>
