<svg width="287" height="287" viewBox="0 0 287 287" fill="none" xmlns="http://www.w3.org/2000/svg">
<path d="M0 143.5C0 185.189 64.2476 218.988 143.5 218.988C222.752 218.988 287 185.189 287 143.5C287 101.811 222.75 68.0123 143.5 68.0123C64.2476 68.0123 0 101.811 0 143.5Z" fill="url(#paint0_radial_418_249)"/>
<path d="M143.5 213.382C219.656 213.382 281.395 182.093 281.395 143.5C281.395 104.903 219.656 73.6177 143.5 73.6177C67.3441 73.6177 5.60547 104.903 5.60547 143.5C5.60547 182.093 67.3441 213.382 143.5 213.382Z" fill="#777BB3"/>
<path d="M77.9654 152.164C84.2278 152.164 88.9005 151.009 91.858 148.733C94.7863 146.478 96.8065 142.574 97.8671 137.13C98.8536 132.04 98.4769 128.489 96.746 126.569C94.9791 124.61 91.1562 123.616 85.3848 123.616H75.3757L69.8307 152.164H77.9654ZM45.2317 187.328C45.0021 187.328 44.7753 187.277 44.5678 187.178C44.3602 187.08 44.177 186.937 44.0313 186.76C43.8855 186.582 43.7809 186.375 43.7248 186.152C43.6688 185.929 43.6627 185.697 43.707 185.472L58.409 109.825C58.4785 109.471 58.6684 109.152 58.9464 108.923C59.2244 108.694 59.5733 108.568 59.9337 108.567H91.6248C101.585 108.567 108.997 111.271 113.659 116.605C118.34 121.964 119.789 129.462 117.957 138.881C117.21 142.717 115.928 146.28 114.145 149.473C112.29 152.757 109.922 155.724 107.132 158.263C103.699 161.473 99.8133 163.805 95.5912 165.175C91.4387 166.53 86.1023 167.216 79.739 167.216H66.9047L63.241 186.068C63.1718 186.423 62.9814 186.742 62.7024 186.972C62.4235 187.202 62.0733 187.328 61.7118 187.328H45.2317Z" fill="black"/>
<path d="M76.6603 125.172H85.3846C92.3511 125.172 94.7704 126.702 95.5933 127.614C96.9543 129.125 97.2144 132.316 96.3355 136.834C95.3512 141.895 93.526 145.484 90.9094 147.498C88.2322 149.561 83.8734 150.605 77.9652 150.605H71.7185L76.6625 125.175L76.6603 125.172ZM91.6246 107.011H59.9358C59.2132 107.011 58.513 107.262 57.9551 107.721C57.3972 108.181 57.0163 108.819 56.8775 109.529L42.1754 185.178C42.0886 185.628 42.1024 186.093 42.2157 186.537C42.3291 186.982 42.5392 187.396 42.8312 187.75C43.1231 188.104 43.4897 188.39 43.9046 188.586C44.3195 188.782 44.7726 188.883 45.2315 188.884H61.7116C62.4342 188.883 63.1341 188.632 63.6916 188.172C64.249 187.712 64.6294 187.073 64.7677 186.364L68.1871 168.772H79.7366C86.2658 168.772 91.7637 168.059 96.0754 166.655C100.508 165.216 104.587 162.774 108.197 159.397C111.103 156.75 113.57 153.656 115.504 150.233C117.367 146.899 118.708 143.177 119.484 139.177C121.412 129.26 119.845 121.32 114.829 115.58C109.86 109.892 102.053 107.008 91.6246 107.008V107.011ZM67.9404 153.718H77.9652C84.6088 153.718 89.5573 152.469 92.8085 149.962C96.0619 147.46 98.2526 143.28 99.3961 137.426C100.484 131.803 99.988 127.836 97.905 125.524C95.8175 123.215 91.6471 122.058 85.3846 122.058H74.093L67.9404 153.718ZM91.6269 110.118C101.161 110.118 108.114 112.623 112.486 117.625C116.858 122.63 118.172 129.614 116.432 138.581C115.71 142.276 114.497 145.652 112.789 148.711C111.076 151.774 108.842 154.572 106.082 157.112C102.791 160.191 99.1382 162.386 95.1135 163.693C91.091 165.003 85.9654 165.655 79.7388 165.655H65.622L61.7139 185.767H45.2338L59.938 110.118H91.6269Z" fill="white"/>
<path d="M155.74 167.216C155.51 167.216 155.283 167.165 155.075 167.067C154.868 166.97 154.684 166.827 154.538 166.65C154.391 166.472 154.286 166.265 154.23 166.042C154.173 165.819 154.167 165.587 154.211 165.361L160.713 131.89C161.334 128.706 161.182 126.424 160.287 125.455C159.738 124.865 158.092 123.876 153.224 123.876H141.439L133.264 165.958C133.194 166.312 133.003 166.631 132.724 166.86C132.444 167.089 132.094 167.214 131.733 167.213H115.387C115.158 167.214 114.931 167.163 114.723 167.065C114.515 166.967 114.332 166.825 114.186 166.648C114.039 166.471 113.934 166.264 113.877 166.042C113.82 165.819 113.813 165.587 113.856 165.361L128.56 89.7122C128.63 89.3578 128.821 89.0386 129.099 88.8091C129.378 88.5797 129.728 88.4543 130.09 88.4543H146.435C146.665 88.4541 146.891 88.5047 147.099 88.6025C147.307 88.7002 147.491 88.8426 147.637 89.0196C147.783 89.1965 147.889 89.4037 147.946 89.6261C148.003 89.8486 148.01 90.0808 147.966 90.3063L144.419 108.567H157.094C166.752 108.567 173.299 110.266 177.113 113.771C180.998 117.343 182.214 123.053 180.718 130.751L173.877 165.958C173.807 166.312 173.616 166.63 173.337 166.859C173.059 167.088 172.709 167.213 172.348 167.213H155.74V167.216Z" fill="black"/>
<path d="M146.437 86.896H130.09C129.367 86.8961 128.666 87.1476 128.108 87.6074C127.55 88.0672 127.17 88.7066 127.031 89.4162L112.329 165.063C112.242 165.514 112.255 165.978 112.369 166.423C112.482 166.868 112.692 167.283 112.984 167.637C113.276 167.991 113.643 168.277 114.058 168.473C114.473 168.669 114.926 168.771 115.385 168.772H131.733C132.456 168.772 133.156 168.52 133.714 168.06C134.272 167.601 134.653 166.961 134.791 166.251L142.722 125.432H153.22C158.081 125.432 159.103 126.471 159.142 126.518C159.438 126.832 159.825 128.3 159.184 131.594L152.682 165.063C152.595 165.514 152.608 165.979 152.721 166.424C152.835 166.869 153.045 167.284 153.337 167.638C153.629 167.992 153.996 168.278 154.412 168.474C154.827 168.67 155.281 168.771 155.74 168.772H172.35C173.073 168.771 173.773 168.519 174.33 168.06C174.888 167.6 175.268 166.961 175.406 166.251L182.247 131.049C183.85 122.784 182.478 116.587 178.167 112.625C174.05 108.845 167.157 107.008 157.094 107.008H146.31L149.496 90.6068C149.583 90.1557 149.57 89.6908 149.457 89.2453C149.344 88.7999 149.134 88.3851 148.841 88.0304C148.549 87.6758 148.182 87.3902 147.766 87.1941C147.351 86.9979 146.897 86.8961 146.437 86.896ZM146.437 90.0126L142.529 110.121H157.094C166.258 110.121 172.581 111.721 176.057 114.919C179.539 118.116 180.579 123.293 179.191 130.457L172.348 165.657H155.74L162.245 132.186C162.985 128.379 162.711 125.782 161.426 124.397C160.142 123.013 157.406 122.32 153.224 122.32H140.155L131.733 165.655H115.383L130.087 90.0059H146.437V90.0126Z" fill="white"/>
<path d="M206.586 152.164C212.849 152.164 217.524 151.009 220.483 148.733C223.407 146.478 225.43 142.574 226.49 137.13C227.477 132.04 227.102 128.489 225.369 126.569C223.602 124.61 219.779 123.616 214.008 123.616H204.001L198.452 152.164H206.586ZM173.859 187.328C173.629 187.328 173.402 187.278 173.194 187.18C172.986 187.082 172.802 186.939 172.656 186.761C172.51 186.584 172.404 186.376 172.348 186.153C172.292 185.93 172.286 185.697 172.33 185.472L187.032 109.825C187.102 109.47 187.292 109.151 187.571 108.922C187.85 108.692 188.2 108.567 188.561 108.567H220.25C230.21 108.567 237.623 111.271 242.282 116.605C246.966 121.964 248.412 129.462 246.58 138.881C245.88 142.591 244.594 146.167 242.771 149.473C240.914 152.757 238.547 155.724 235.757 158.263C232.327 161.473 228.436 163.805 224.217 165.175C220.064 166.53 214.728 167.216 208.362 167.216H195.53L191.868 186.068C191.799 186.423 191.609 186.743 191.329 186.973C191.05 187.203 190.699 187.328 190.337 187.328H173.859Z" fill="black"/>
<path d="M205.283 125.172H214.008C220.974 125.172 223.393 126.702 224.214 127.614C225.582 129.125 225.837 132.316 224.961 136.834C223.974 141.895 222.149 145.484 219.532 147.498C216.853 149.561 212.494 150.605 206.588 150.605H200.342L205.283 125.172ZM220.248 107.011H188.559C187.837 107.011 187.137 107.263 186.58 107.722C186.022 108.181 185.641 108.82 185.503 109.529L170.798 185.178C170.712 185.629 170.725 186.093 170.839 186.538C170.952 186.983 171.163 187.397 171.455 187.751C171.747 188.105 172.114 188.39 172.529 188.586C172.944 188.782 173.398 188.884 173.857 188.884H190.337C191.059 188.883 191.759 188.632 192.317 188.172C192.874 187.712 193.255 187.073 193.393 186.364L196.812 168.772H208.36C214.887 168.772 220.387 168.059 224.696 166.655C229.131 165.216 233.21 162.774 236.822 159.395C239.728 156.748 242.193 153.655 244.127 150.233C245.992 146.899 247.329 143.177 248.107 139.177C250.035 129.26 248.47 121.32 243.452 115.58C238.483 109.892 230.678 107.008 220.245 107.008L220.248 107.011ZM196.563 153.718H206.586C213.232 153.718 218.178 152.469 221.434 149.962C224.685 147.46 226.878 143.28 228.017 137.426C229.109 131.803 228.613 127.836 226.526 125.524C224.441 123.215 220.268 122.058 214.008 122.058H202.718L196.563 153.718ZM220.248 110.118C229.779 110.118 236.737 112.623 241.107 117.625C245.479 122.63 246.795 129.614 245.051 138.581C244.333 142.276 243.118 145.652 241.409 148.711C239.699 151.774 237.463 154.572 234.701 157.112C231.412 160.191 227.757 162.386 223.732 163.693C219.712 165.003 214.588 165.655 208.36 165.655H194.245L190.332 185.767H173.852L188.557 110.118H220.248Z" fill="white"/>
<defs>
<radialGradient id="paint0_radial_418_249" cx="0" cy="0" r="1" gradientUnits="userSpaceOnUse" gradientTransform="translate(86.1583 94.5508) scale(188.436 188.436)">
<stop stop-color="#AEB2D5"/>
<stop offset="0.3" stop-color="#AEB2D5"/>
<stop offset="0.75" stop-color="#484C89"/>
<stop offset="1" stop-color="#484C89"/>
</radialGradient>
</defs>
</svg>
