<svg width="203" height="207" viewBox="0 0 203 207" fill="none" xmlns="http://www.w3.org/2000/svg">
<path d="M9.375 103.438C11.6459 103.438 13.8238 102.535 15.4296 100.93C17.0354 99.3238 17.9375 97.1459 17.9375 94.875V17.8125H112.125V69.1875C112.125 71.4584 113.027 73.6363 114.633 75.2421C116.239 76.8479 118.417 77.75 120.688 77.75H172.062V94.875C172.062 97.1459 172.965 99.3238 174.57 100.93C176.176 102.535 178.354 103.438 180.625 103.438C182.896 103.438 185.074 102.535 186.68 100.93C188.285 99.3238 189.188 97.1459 189.188 94.875V69.1875C189.188 68.0627 188.968 66.9488 188.538 65.9094C188.108 64.8699 187.478 63.9253 186.683 63.1295L126.745 3.19203C125.95 2.39714 125.005 1.76682 123.966 1.33708C122.926 0.907349 121.812 0.686618 120.688 0.687503H17.9375C13.3957 0.687503 9.03986 2.49174 5.8283 5.7033C2.61674 8.91486 0.8125 13.2707 0.8125 17.8125V94.875C0.8125 97.1459 1.71462 99.3238 3.3204 100.93C4.92618 102.535 7.10408 103.438 9.375 103.438ZM129.25 29.9177L159.957 60.625H129.25V29.9177ZM202.031 197.625C202.031 199.896 201.129 202.074 199.523 203.68C197.918 205.285 195.74 206.188 193.469 206.188H163.5C161.229 206.188 159.051 205.285 157.445 203.68C155.84 202.074 154.938 199.896 154.938 197.625V137.688C154.938 135.417 155.84 133.239 157.445 131.633C159.051 130.027 161.229 129.125 163.5 129.125C165.771 129.125 167.949 130.027 169.555 131.633C171.16 133.239 172.062 135.417 172.062 137.688V189.062H193.469C195.74 189.062 197.918 189.965 199.523 191.57C201.129 193.176 202.031 195.354 202.031 197.625ZM56.2761 185.113C55.9424 188.388 54.8872 191.548 53.1865 194.367C51.4858 197.185 49.1817 199.592 46.4399 201.414C40.885 205.117 33.9922 206.188 27.7202 206.188C22.2501 206.159 16.8055 205.44 11.5156 204.047C9.35447 203.414 7.52966 201.955 6.43644 199.986C5.34323 198.017 5.06962 195.697 5.67488 193.528C6.28013 191.359 7.71553 189.516 9.67017 188.397C11.6248 187.279 13.9413 186.976 16.118 187.553C20.8059 188.838 32.1191 190.443 37.0426 187.168C37.9952 186.537 39.0012 185.541 39.333 182.962C39.7077 180.104 38.5731 178.573 25.6545 174.838C15.647 171.948 -1.10336 167.1 1.03726 150.103C1.37043 146.893 2.40615 143.795 4.07092 141.029C5.73569 138.264 7.9887 135.899 10.6701 134.102C23.3426 125.539 43.5501 130.559 45.8084 131.148C46.8963 131.435 47.9171 131.933 48.8125 132.614C49.7078 133.295 50.4602 134.146 51.0268 135.118C51.5933 136.09 51.9628 137.164 52.1142 138.279C52.2656 139.394 52.1959 140.528 51.9092 141.616C51.6225 142.703 51.1243 143.724 50.4431 144.62C49.7618 145.515 48.9109 146.267 47.9389 146.834C46.9669 147.4 45.8928 147.77 44.778 147.921C43.6632 148.073 42.5295 148.003 41.4416 147.716C36.6359 146.464 25.1514 144.976 20.228 148.316C19.5826 148.751 19.0513 149.335 18.6788 150.019C18.3062 150.702 18.1034 151.465 18.0873 152.244C17.9589 153.207 17.9375 153.4 19.2861 154.277C21.7585 155.872 26.1789 157.146 30.4709 158.387C40.9492 161.416 58.6736 166.586 56.2761 185.113ZM132.268 188.57C135.92 182.206 137.832 174.993 137.812 167.656C137.812 146.411 122.454 129.125 103.562 129.125C84.6715 129.125 69.3125 146.411 69.3125 167.656C69.3125 188.902 84.6715 206.188 103.562 206.188C109.611 206.166 115.523 204.389 120.58 201.071L123.192 203.683C124.799 205.288 126.977 206.189 129.248 206.188C131.52 206.187 133.697 205.284 135.303 203.678C136.908 202.071 137.809 199.892 137.808 197.621C137.807 195.35 136.904 193.172 135.297 191.567L132.268 188.57ZM103.562 189.062C94.1223 189.062 86.4375 179.43 86.4375 167.656C86.4375 155.883 94.1223 146.25 103.562 146.25C113.003 146.25 120.688 155.883 120.688 167.656C120.689 170.385 120.263 173.097 119.425 175.694L118.172 174.442C117.377 173.647 116.432 173.017 115.393 172.587C114.354 172.157 113.24 171.936 112.116 171.937C109.845 171.938 107.667 172.841 106.062 174.447C104.456 176.054 103.555 178.233 103.556 180.504C103.557 182.775 104.46 184.953 106.067 186.558L107.865 188.345C106.478 188.81 105.026 189.052 103.562 189.062Z" fill="black"/>
</svg>
