<svg width="256" height="257" viewBox="0 0 256 257" fill="none" xmlns="http://www.w3.org/2000/svg">
<g clip-path="url(#clip0_418_163)">
<path d="M128 256.827C198.692 256.827 256 199.519 256 128.827C256 58.1346 198.692 0.827026 128 0.827026C57.3075 0.827026 0 58.1346 0 128.827C0 199.519 57.3075 256.827 128 256.827Z" fill="#1A171B"/>
<path d="M183.706 48.124C170.72 48.577 159.386 55.734 150.949 65.634C141.607 76.489 135.392 89.364 130.914 102.506C122.904 95.941 116.724 87.442 103.873 83.736C93.9402 80.884 83.5072 82.062 73.9132 89.21C69.3682 92.605 66.2372 97.737 64.7482 102.561C60.8932 115.098 68.8012 126.255 72.3932 130.261L80.2462 138.677C81.8652 140.327 85.7642 144.632 83.8582 150.804C81.7982 157.514 73.7082 161.859 65.4102 159.299C61.7042 158.169 56.3802 155.408 57.5722 151.52C58.0652 149.93 59.2032 148.74 59.8132 147.365C60.3732 146.184 60.6402 145.298 60.8102 144.778C62.3262 139.828 60.2552 133.388 54.9532 131.753C50.0072 130.237 44.9462 131.438 42.9842 137.807C40.7592 145.042 44.2212 158.173 62.7672 163.891C84.4962 170.567 102.877 158.736 105.484 143.305C107.126 133.64 102.762 126.46 94.7672 117.225L88.2532 110.021C84.3072 106.079 82.9522 99.36 87.0362 94.196C90.4822 89.84 95.3902 87.981 103.428 90.167C115.161 93.353 120.391 101.494 129.118 108.06C125.515 119.879 123.16 131.742 121.028 142.38L119.729 150.311C113.491 183.032 108.729 200.999 96.3542 211.314C93.8612 213.087 90.2972 215.741 84.9252 215.926C82.1092 216.013 81.1992 214.076 81.1602 213.232C81.0932 211.255 82.7592 210.349 83.8662 209.459C85.5202 208.557 88.0212 207.061 87.8512 202.268C87.6712 196.604 82.9792 191.693 76.1972 191.918C71.1172 192.091 63.3742 196.872 63.6652 205.623C63.9682 214.662 72.3932 221.436 85.0952 221.007C91.8852 220.774 107.047 218.01 121.99 200.247C139.382 179.885 144.246 156.542 147.905 139.457L151.989 116.901C154.258 117.173 156.684 117.354 159.323 117.417C180.984 117.874 191.819 106.654 191.98 98.493C192.087 93.554 188.739 88.694 184.052 88.804C180.697 88.899 176.482 91.132 175.47 95.772C174.482 100.324 182.363 104.432 176.203 108.422C171.827 111.254 163.982 113.25 152.934 111.628L154.943 100.525C159.043 79.47 164.1 53.571 183.284 52.941C184.682 52.87 189.798 53.004 189.917 56.387C189.952 57.517 189.672 57.805 188.349 60.392C187.002 62.409 186.494 64.126 186.557 66.099C186.742 71.475 190.83 75.008 196.742 74.795C204.658 74.539 206.935 66.832 206.805 62.874C206.485 53.574 196.684 47.699 183.706 48.124Z" fill="white"/>
</g>
<defs>
<clipPath id="clip0_418_163">
<rect width="256" height="257" fill="white"/>
</clipPath>
</defs>
</svg>
