<svg width="236" height="236" viewBox="0 0 236 236" fill="none" xmlns="http://www.w3.org/2000/svg">
<path d="M118 0.500004C53.2575 0.500004 0.5 53.2575 0.5 118C0.5 182.742 53.2575 235.5 118 235.5C182.742 235.5 235.5 182.742 235.5 118C235.5 53.2575 182.742 0.500004 118 0.500004ZM12.3675 118C12.3675 102.725 15.6575 88.155 21.5325 74.995L71.94 213.057C36.69 195.902 12.3675 159.83 12.3675 118ZM118 223.632C107.66 223.632 97.6725 222.105 88.155 219.285L119.88 127.165L152.31 216.112C152.545 216.582 152.78 217.17 153.015 217.522C142.087 221.517 130.337 223.632 118 223.632ZM132.57 68.415C138.915 68.0625 144.672 67.3575 144.672 67.3575C150.312 66.6525 149.725 58.31 143.967 58.6625C143.967 58.6625 126.812 59.955 115.767 59.955C105.427 59.955 87.92 58.6625 87.92 58.6625C82.28 58.4275 81.575 67.1225 87.3325 67.475C87.3325 67.475 92.7375 68.18 98.3775 68.5325L114.827 113.652L91.68 182.977L53.2575 68.415C59.6025 68.18 65.36 67.475 65.36 67.475C71 66.77 70.4125 58.4275 64.655 58.78C64.655 58.78 47.5 60.0725 36.455 60.0725C34.4575 60.0725 32.1075 60.0725 29.64 59.955C48.675 31.285 81.105 12.3675 118 12.3675C145.495 12.3675 170.522 22.825 189.322 40.0975C188.852 40.0975 188.382 39.98 187.912 39.98C177.572 39.98 170.17 49.0275 170.17 58.78C170.17 67.475 175.222 74.8775 180.51 83.5725C184.505 90.6225 189.205 99.67 189.205 112.712C189.205 121.76 185.68 132.217 181.215 146.905L170.64 182.155L132.57 68.415ZM210.707 67.3575C223.905 91.5112 227.152 119.863 219.756 146.375C212.36 172.887 194.905 195.464 171.11 209.297L203.422 116.002C209.415 100.962 211.412 88.86 211.412 78.1675C211.412 74.29 211.177 70.6475 210.707 67.3575Z" fill="black"/>
</svg>
