<svg width="263" height="263" viewBox="0 0 263 263" fill="none" xmlns="http://www.w3.org/2000/svg">
<g clip-path="url(#clip0_419_337)">
<path d="M201.359 0H61.6406C27.5974 0 0 27.5974 0 61.6406V201.359C0 235.403 27.5974 263 61.6406 263H201.359C235.403 263 263 235.403 263 201.359V61.6406C263 27.5974 235.403 0 201.359 0Z" fill="#2396ED"/>
<path d="M145.048 125.462H166.331V106.206H145.048V125.462ZM119.711 125.462H140.994V106.206H119.711V125.462ZM94.8803 125.462H116.164V106.206H94.8803V125.462ZM70.0494 125.462H90.8274V106.206H70.0504L70.0494 125.462ZM44.7131 125.462H65.9965V106.206H44.7131V125.462ZM70.0504 102.152H90.8264V82.8964H70.0504V102.152ZM94.8813 102.152H116.164V82.8964H94.8803L94.8813 102.152ZM119.711 102.152H140.994V82.8964H119.711V102.152ZM119.711 78.8414H140.994V59.5859H119.711V78.8425V78.8414ZM234.234 116.849C234.234 116.849 225.113 108.234 206.364 111.275C204.337 96.5785 188.627 87.9643 188.627 87.9643C188.627 87.9643 173.932 105.7 184.574 125.463C181.534 126.984 176.466 129.011 168.864 129.011H29.5115C26.977 138.639 26.977 202.487 96.9073 202.487C147.075 202.487 184.574 179.178 202.31 136.611C228.66 138.638 234.234 116.849 234.234 116.849Z" fill="white"/>
</g>
<defs>
<clipPath id="clip0_419_337">
<rect width="263" height="263" fill="white"/>
</clipPath>
</defs>
</svg>
