<svg width="235" height="235" viewBox="0 0 235 235" fill="none" xmlns="http://www.w3.org/2000/svg">
<g clip-path="url(#clip0_418_245)">
<path d="M0 0H235V235H0V0Z" fill="#F7DF1E"/>
<path d="M61.7905 196.383L79.7735 185.499C83.2434 191.651 86.3994 196.856 93.9699 196.856C101.226 196.856 105.802 194.017 105.802 182.976V107.888H127.886V183.288C127.886 206.161 114.478 216.573 94.9163 216.573C77.25 216.573 66.9954 207.423 61.7896 196.381M139.881 194.016L157.862 183.606C162.596 191.336 168.749 197.014 179.632 197.014C188.783 197.014 194.618 192.439 194.618 186.129C194.618 178.558 188.623 175.875 178.528 171.46L173.008 169.092C157.075 162.311 146.506 153.792 146.506 135.809C146.506 119.245 159.125 106.625 178.844 106.625C192.884 106.625 202.98 111.516 210.235 124.293L193.04 135.336C189.253 128.553 185.154 125.872 178.843 125.872C172.375 125.872 168.274 129.973 168.274 135.336C168.274 141.961 172.375 144.644 181.84 148.746L187.36 151.111C206.133 159.157 216.701 167.359 216.701 185.814C216.701 205.692 201.085 216.575 180.105 216.575C159.598 216.575 146.347 206.795 139.88 194.017" fill="black"/>
</g>
<defs>
<clipPath id="clip0_418_245">
<rect width="235" height="235" fill="white"/>
</clipPath>
</defs>
</svg>
