<svg width="251" height="251" viewBox="0 0 251 251" fill="none" xmlns="http://www.w3.org/2000/svg">
<path d="M128.016 209.679C126.392 209.312 124.814 208.805 123.229 208.336L122.035 207.973C120.489 207.499 118.952 206.999 117.423 206.473L116.789 206.244C115.426 205.762 114.07 205.259 112.723 204.736L111.581 204.287C110.107 203.704 108.64 203.096 107.193 202.461L106.316 202.073C105.075 201.512 103.84 200.937 102.612 200.349L101.541 199.835C100.578 199.367 99.6254 198.869 98.6763 198.378C98.041 198.043 97.3939 197.727 96.7644 197.378C95.6087 196.756 94.464 196.114 93.3308 195.453L92.1719 194.805C90.6664 193.917 89.1759 193.004 87.7009 192.066L86.495 191.262C85.4223 190.575 84.3613 189.869 83.3124 189.146L82.2868 188.427C81.2768 187.712 80.274 186.987 79.2787 186.252L77.9472 185.244C77.0334 184.549 76.1286 183.841 75.2333 183.122L74.0234 182.152C72.884 181.217 71.757 180.267 70.6428 179.302L70.2741 178.99C69.0735 177.932 67.889 176.855 66.7209 175.761L65.7208 174.798C64.856 173.974 64.005 173.145 63.1677 172.294L62.1676 171.296C61.1048 170.208 60.0595 169.103 59.032 167.982L58.8791 167.817C57.7971 166.632 56.7374 165.426 55.7004 164.201L54.869 163.213C54.0932 162.281 53.3303 161.338 52.5806 160.385L51.7432 159.342C50.846 158.182 49.9655 157.009 49.1019 155.824C25.2765 123.323 16.715 78.5003 35.7596 41.6896L18.874 63.105C-2.75317 94.1878 -0.0608075 134.632 16.4601 167.662C16.8523 168.454 17.266 169.233 17.67 170.011L18.4446 171.5L18.925 172.357L19.7858 173.898C20.2996 174.802 20.8251 175.702 21.3644 176.602L22.2625 178.085C22.8586 179.047 23.4685 179.998 24.094 180.948L24.8745 182.152C25.7334 183.436 26.6158 184.718 27.5257 185.977L27.6021 186.075L28.0492 186.679C28.8336 187.764 29.6454 188.834 30.4651 189.893L31.373 191.05C32.1044 191.97 32.8476 192.884 33.6065 193.794L34.4595 194.813C35.4772 196.014 36.514 197.199 37.5696 198.367L37.6323 198.431L37.7539 198.565C38.7908 199.691 39.8446 200.802 40.9149 201.896L41.9287 202.918C42.7582 203.753 43.6014 204.575 44.4525 205.393L45.4839 206.373C46.6213 207.446 47.7704 208.497 48.943 209.524L48.9979 209.567L49.5999 210.081C50.6314 210.975 51.6824 211.864 52.7433 212.734L54.0454 213.772C54.9102 214.466 55.7847 215.148 56.6652 215.819L58.0653 216.884C59.036 217.599 60.0164 218.303 61.0047 218.992L62.0754 219.751L62.3696 219.96C63.3069 220.605 64.2658 221.227 65.2247 221.849L66.4601 222.672C67.9288 223.602 69.4211 224.521 70.9271 225.41L72.1625 226.106C73.2726 226.747 74.3911 227.374 75.5176 227.986C76.1295 228.316 76.757 228.628 77.3727 228.943C78.1708 229.361 78.963 229.785 79.7748 230.191L80.3298 230.459L81.3122 230.934C82.5692 231.534 83.8359 232.124 85.1164 232.693L85.9204 233.054C87.3882 233.696 88.8677 234.311 90.358 234.899L91.4385 235.324C92.819 235.856 94.2191 236.381 95.6251 236.875L96.1506 237.058C97.6919 237.597 99.2509 238.097 100.82 238.585L101.947 238.923C103.543 239.403 105.12 239.978 106.767 240.282C211.362 259.356 241.744 177.428 241.744 177.428C216.225 210.673 170.931 219.443 128.016 209.679ZM90.3384 124.906C92.6817 128.265 95.28 132.261 98.3881 134.96C99.5253 136.205 100.696 137.42 101.898 138.603L102.824 139.515C103.992 140.653 105.187 141.763 106.408 142.845L106.553 142.97L106.589 143.005C107.955 144.195 109.351 145.35 110.775 146.47L111.724 147.212C113.156 148.315 114.617 149.381 116.103 150.41L116.231 150.506C116.889 150.961 117.562 151.384 118.231 151.824L119.176 152.449C120.243 153.134 121.325 153.8 122.423 154.44L122.882 154.706C123.829 155.251 124.79 155.789 125.751 156.31L126.773 156.842C127.437 157.189 128.102 157.544 128.781 157.881L129.085 158.018C130.461 158.697 131.851 159.352 133.273 159.969L134.199 160.35C135.334 160.835 136.478 161.3 137.63 161.742L139.101 162.281C140.146 162.67 141.195 163.023 142.254 163.378L143.68 163.834C145.184 164.301 146.67 164.891 148.237 165.152C228.994 178.532 247.637 116.352 247.637 116.352C230.832 140.556 198.284 152.106 163.554 143.09C162.019 142.686 160.493 142.245 158.979 141.768L157.606 141.323C156.533 140.975 155.466 140.608 154.406 140.221L152.963 139.683C151.808 139.24 150.66 138.777 149.52 138.295L148.592 137.903C147.172 137.285 145.767 136.632 144.38 135.944C143.666 135.597 142.966 135.23 142.266 134.869L141.046 134.242C140.147 133.754 139.256 133.251 138.374 132.732L137.734 132.369C136.643 131.732 135.564 131.073 134.499 130.393L133.522 129.742C132.819 129.286 132.12 128.824 131.426 128.355C129.946 127.326 128.49 126.261 127.061 125.163L126.078 124.388C110.877 112.387 98.8273 95.982 93.0974 77.3825C87.0931 58.0948 88.3892 36.4421 98.79 18.8682L86.0106 36.9088C70.3682 59.4164 71.2193 89.5482 83.4202 113.352C85.4607 117.356 87.7722 121.216 90.3384 124.906ZM175.457 97.0625C176.122 97.3076 176.786 97.5273 177.461 97.7567L178.345 98.0371C179.294 98.3352 180.24 98.6822 181.222 98.8685C225.812 107.485 237.909 75.9863 241.127 71.3487C230.532 86.6029 212.728 90.2639 190.882 84.9616C189.156 84.5439 187.258 83.9203 185.595 83.3301C183.459 82.5711 181.363 81.7012 179.318 80.724C175.436 78.8558 171.75 76.6066 168.313 74.0097C148.765 59.1752 136.62 30.8809 149.376 7.83789L142.474 17.3504C133.254 30.9201 132.348 47.7724 138.746 62.7579C145.494 78.665 159.32 91.1424 175.457 97.0625Z" fill="black"/>
</svg>
