<svg width="225" height="232" viewBox="0 0 225 232" fill="none" xmlns="http://www.w3.org/2000/svg">
<g clip-path="url(#clip0_419_304)">
<path d="M224.873 52.3934C224.956 52.7019 224.999 53.02 224.999 53.3399V103.051C224.999 104.35 224.305 105.55 223.177 106.195L181.45 130.219V177.832C181.45 178.469 181.282 179.095 180.964 179.647C180.646 180.199 180.189 180.657 179.637 180.977L92.531 231.114C92.3314 231.227 92.1144 231.299 91.8964 231.377C91.8147 231.403 91.7382 231.453 91.6521 231.476C91.0431 231.637 90.403 231.637 89.7941 231.476C89.6939 231.45 89.6033 231.395 89.5084 231.359C89.3089 231.286 89.1006 231.222 88.9108 231.114L1.82197 180.976C1.26856 180.658 0.808715 180.2 0.488829 179.648C0.168943 179.096 0.000329908 178.47 0 177.832L0 28.6978C0 28.3709 0.045703 28.0536 0.126562 27.7461C0.153808 27.6415 0.217089 27.5466 0.254003 27.442C0.321679 27.2522 0.385839 27.0571 0.485155 26.8805C0.55283 26.7627 0.652146 26.6678 0.733884 26.5588C0.838474 26.4138 0.933396 26.2644 1.05556 26.137C1.16015 26.0333 1.29638 25.956 1.41416 25.8655C1.54599 25.7565 1.66289 25.6387 1.8123 25.5526H1.81669L45.3628 0.484303C45.9143 0.167 46.5394 0 47.1756 0C47.8118 0 48.4369 0.167 48.9883 0.484303L92.5345 25.5526H92.5433C92.6883 25.644 92.8113 25.7565 92.9423 25.8611C93.0601 25.9516 93.1919 26.0333 93.2956 26.1335C93.423 26.2644 93.5136 26.4147 93.6217 26.5588C93.699 26.6678 93.8036 26.7627 93.8669 26.8805C93.9706 27.0615 94.0295 27.2522 94.1024 27.4429C94.1385 27.5466 94.2018 27.6415 94.229 27.7505C94.3125 28.0589 94.3556 28.3779 94.3564 28.6978V121.844L130.643 100.953V53.3355C130.643 53.0191 130.689 52.6966 130.77 52.3934C130.802 52.2845 130.861 52.1895 130.897 52.0858C130.97 51.8952 131.033 51.6992 131.132 51.5234C131.2 51.4057 131.299 51.3108 131.378 51.2018C131.486 51.0568 131.576 50.9074 131.703 50.78C131.808 50.6763 131.939 50.5989 132.057 50.5084C132.193 50.3995 132.311 50.2817 132.456 50.1956H132.46L176.011 25.1273C176.562 24.8095 177.187 24.6423 177.824 24.6423C178.46 24.6423 179.085 24.8095 179.636 25.1273L223.183 50.1956C223.336 50.2861 223.454 50.3995 223.59 50.5032C223.703 50.5945 223.835 50.6763 223.939 50.7756C224.066 50.9074 224.156 51.0568 224.265 51.2018C224.347 51.3108 224.446 51.4057 224.511 51.5234C224.614 51.6992 224.673 51.8952 224.745 52.0858C224.787 52.1895 224.845 52.2845 224.873 52.3934ZM217.74 100.953V59.6153L202.501 68.3865L181.449 80.5067V121.845L217.745 100.953H217.74ZM174.194 175.734V134.367L153.486 146.193L94.352 179.938V221.693L174.194 175.732V175.734ZM7.25886 34.9723V175.734L87.0923 221.689V179.942L45.3866 156.342L45.3734 156.333L45.3558 156.324C45.2152 156.242 45.0965 156.125 44.9656 156.025C44.8513 155.934 44.7204 155.862 44.6211 155.762L44.6123 155.749C44.4945 155.635 44.4128 155.495 44.3134 155.368C44.222 155.245 44.1139 155.141 44.041 155.015L44.0366 155.001C43.9548 154.865 43.9047 154.702 43.8459 154.548C43.787 154.412 43.7105 154.284 43.6736 154.14V154.136C43.6288 153.964 43.62 153.782 43.6015 153.605C43.5839 153.47 43.547 153.334 43.547 153.197V55.8646L22.4982 43.7391L7.25886 34.9776V34.9723ZM47.1804 7.81515L10.8975 28.6978L47.1716 49.5795L83.4493 28.6925L47.1716 7.81515H47.1804ZM66.0487 138.138L87.0967 126.023V34.9723L71.8592 43.7444L50.805 55.8638V146.913L66.0487 138.138ZM177.823 32.4581L141.546 53.3399L177.823 74.2225L214.097 53.3355L177.823 32.4581ZM174.193 80.5067L153.141 68.3865L137.903 59.6153V100.953L158.951 113.069L174.194 121.845V80.5067H174.193ZM90.7178 173.664L143.929 143.289L170.528 128.111L134.277 107.242L92.5389 131.268L54.4982 153.166L90.7178 173.664Z" fill="#FF2D20"/>
</g>
<defs>
<clipPath id="clip0_419_304">
<rect width="225" height="232" fill="white"/>
</clipPath>
</defs>
</svg>
