<svg width="256" height="256" viewBox="0 0 256 256" fill="none" xmlns="http://www.w3.org/2000/svg">
<g clip-path="url(#clip0_418_166)">
<path d="M82.979 196.416C85.023 195.506 87.094 194.669 89.184 193.884C91.544 192.997 93.923 192.163 96.334 191.437C99.335 190.533 102.361 189.715 105.428 189.064C109.566 188.184 113.751 187.537 117.962 187.127C115.582 194.593 112.978 201.985 110.154 209.295C110.27 210.722 110.345 212.152 110.378 213.583C116.182 212.435 122.084 211.857 128 211.856C134.031 211.856 139.92 212.458 145.622 213.583C145.655 212.152 145.73 210.722 145.846 209.295C143.022 201.986 140.418 194.593 138.038 187.127C142.253 187.536 146.437 188.186 150.572 189.064C153.638 189.715 156.664 190.533 159.665 191.437C162.077 192.163 164.456 192.997 166.816 193.884C168.907 194.67 170.979 195.507 173.023 196.417C187.799 202.986 200.962 212.703 211.593 224.888C238.773 201.417 256 166.731 256 128C256 57.308 198.692 0 128 0C57.308 0 0 57.308 0 128C0 166.731 17.227 201.416 44.407 224.888C55.0384 212.703 68.2024 202.986 82.979 196.416Z" fill="#A5DBE8"/>
<path d="M173.023 196.417L180.969 223.74L183.223 223.846C184.686 223.846 185.715 224.231 185.715 225.694C185.715 228.126 185.841 230.859 186.074 233.245C188.054 234.926 190.465 236.822 192.293 238.664C199.138 234.678 205.599 230.066 211.593 224.888C200.962 212.703 187.799 202.986 173.023 196.417ZM157.486 196.144L166.816 193.884C164.456 192.997 162.077 192.163 159.665 191.437C156.664 190.533 153.638 189.715 150.572 189.064C146.434 188.184 142.249 187.537 138.038 187.127C140.418 194.593 143.022 201.986 145.846 209.295C145.73 210.722 145.655 212.152 145.622 213.583C152.233 214.887 158.733 217.153 164.743 219.811L157.486 196.144Z" fill="#525353"/>
<path d="M63.707 238.664C65.193 239.53 66.694 240.375 68.22 241.182C68.754 238.617 69.608 235.063 69.866 232.424C67.886 234.105 65.535 236.822 63.707 238.664ZM164.587 219.575C158.507 216.882 152.146 214.872 145.622 213.583C139.818 212.436 133.916 211.857 128 211.856C121.968 211.856 116.08 212.458 110.378 213.583C103.768 214.886 96.871 216.863 90.863 219.52L90.224 223.501H165.778L164.587 219.575Z" fill="black"/>
<path d="M69.6322 233.182C69.8662 230.796 70.0352 228.669 70.0352 226.236C70.0352 224.774 71.0382 223.837 72.5012 223.837L74.9002 223.753L82.9792 196.416C68.2026 202.986 55.0387 212.703 44.4072 224.888C50.4015 230.066 56.8624 234.678 63.7072 238.664C65.5351 236.82 67.4409 235.055 69.4192 233.374" fill="#525353"/>
<path d="M187.051 238.045C187.569 240.645 187.686 241.163 187.78 241.182C189.301 240.374 190.806 239.534 192.293 238.664C190.445 236.8 188.52 235.016 186.521 233.315L187.051 238.045Z" fill="black"/>
<path d="M164.587 219.575L165.778 223.501H181.232L173.023 196.417C170.979 195.511 168.909 194.667 166.816 193.884L157.486 196.144L164.587 219.575Z" fill="#AA9678"/>
<path d="M75.0391 228.971C75.1201 228.914 75.2021 228.857 75.2821 228.799H75.0501C75.0481 228.856 75.0421 228.914 75.0391 228.971Z" fill="#C4B6A1"/>
<path d="M180.95 228.799H180.717L180.96 228.971C180.958 228.914 180.952 228.856 180.95 228.799Z" fill="#AA9678"/>
<path d="M180.684 228.404L127.89 228.464L128 256C147.648 256 166.256 251.561 182.893 243.649C181.807 238.877 181.698 233.737 181.521 228.735C181.441 228.677 180.684 228.404 180.684 228.404Z" fill="#AA9678"/>
<path d="M127.915 228.578C127.915 228.578 74.8299 228.511 74.7489 228.568C74.5729 233.571 73.5409 239.507 73.1069 243.649C89.7439 251.561 108.352 256 128 256L128.03 228.667L127.915 228.578Z" fill="#C4B6A1"/>
<path d="M128 226.15H128.001V228.799H128V226.15Z" fill="#786453"/>
<path d="M211.714 127.169C211.718 127.203 211.728 127.233 211.732 127.267C211.735 127.288 211.741 127.307 211.744 127.327V127.335C211.805 127.824 211.828 128.335 211.839 128.85C211.841 128.945 211.857 129.034 211.857 129.128L211.858 129.163L211.857 129.201C211.856 129.303 211.839 129.398 211.838 129.499C211.831 129.996 211.8 130.491 211.745 130.985V130.992L211.731 131.065C211.727 131.104 211.715 131.139 211.71 131.177C211.643 131.687 211.547 132.193 211.423 132.692L211.421 132.699L211.439 132.68L211.446 132.657V132.658L214.796 129.151L211.419 125.616L211.42 125.623C211.546 126.116 211.642 126.634 211.714 127.169Z" fill="#676A6A"/>
<path d="M211.71 131.177C211.719 131.111 211.736 131.052 211.745 130.985C211.804 130.505 211.826 130.004 211.838 129.499C211.839 129.385 211.857 129.278 211.857 129.163C211.857 129.056 211.841 128.956 211.839 128.85C211.833 128.344 211.801 127.838 211.744 127.335C211.736 127.277 211.721 127.226 211.714 127.169C211.646 126.648 211.548 126.132 211.42 125.623C211.376 125.451 211.315 125.298 211.264 125.132C210.961 124.13 210.548 123.245 210.058 122.51C209.871 122.231 209.665 121.963 209.444 121.71C209.242 121.486 209.02 121.28 208.782 121.095C208.694 121.028 208.601 120.981 208.511 120.923C208.235 120.742 207.937 120.597 207.623 120.494C207.327 120.396 207.018 120.342 206.706 120.336C206.392 120.336 206.088 120.402 205.789 120.494C205.475 120.597 205.176 120.741 204.9 120.923C204.812 120.981 204.718 121.027 204.631 121.094C204.219 121.415 203.857 121.796 203.557 122.223C203.487 122.317 203.419 122.413 203.354 122.511C202.864 123.246 202.45 124.131 202.148 125.133L202.11 125.253C201.976 125.713 201.872 126.197 201.785 126.694C201.759 126.846 201.724 126.992 201.703 127.148C201.623 127.704 201.582 128.284 201.572 128.878C201.571 128.96 201.558 129.038 201.558 129.12H201.578C201.578 133.996 203.885 137.948 206.73 137.948C207.22 137.948 207.691 137.82 208.14 137.601C208.409 137.469 208.663 137.308 208.898 137.122C208.995 137.044 209.086 136.95 209.179 136.862C209.406 136.65 209.622 136.41 209.827 136.143C209.969 135.956 210.109 135.769 210.239 135.56C210.322 135.427 210.398 135.283 210.475 135.141C210.619 134.875 210.755 134.598 210.878 134.304C210.924 134.198 210.971 134.095 211.013 133.986C211.17 133.577 211.307 133.145 211.423 132.692C211.546 132.209 211.638 131.701 211.71 131.177ZM206.891 127.988C205.824 127.988 204.959 126.505 204.959 124.677C204.959 122.85 205.824 121.367 206.891 121.367C207.958 121.367 208.822 122.85 208.822 124.677C208.822 126.505 207.958 127.988 206.891 127.988Z" fill="black"/>
<path d="M206.891 121.367C205.824 121.367 204.959 122.85 204.959 124.677C204.959 126.505 205.824 127.988 206.891 127.988C207.958 127.988 208.822 126.505 208.822 124.677C208.822 122.85 207.958 121.367 206.891 121.367Z" fill="white"/>
<path d="M202.148 125.133C202.45 124.131 202.864 123.246 203.354 122.511C203.42 122.411 203.487 122.318 203.557 122.223C203.856 121.795 204.218 121.414 204.631 121.094C204.718 121.027 204.812 120.981 204.9 120.923C205.176 120.741 205.475 120.597 205.789 120.494C206.087 120.4 206.392 120.336 206.706 120.336C207.02 120.336 207.325 120.4 207.623 120.494C207.937 120.597 208.235 120.742 208.511 120.923C208.601 120.981 208.694 121.028 208.782 121.095C209.012 121.271 209.232 121.479 209.444 121.71C209.665 121.963 209.87 122.231 210.058 122.51C210.548 123.245 210.961 124.13 211.264 125.132V125.134L206.706 104.257L202.148 125.133Z" fill="#909393"/>
<path d="M146.299 128.968C146.293 128.548 146.266 128.133 146.219 127.725C146.218 127.72 146.216 127.714 146.216 127.708C146.169 127.309 146.101 126.912 146.015 126.52L146.007 126.49C145.921 126.107 145.817 125.729 145.694 125.356L145.684 125.331C145.562 124.961 145.421 124.598 145.262 124.243C145.26 124.236 145.255 124.229 145.252 124.221C143.982 121.394 141.677 119.161 138.811 117.981L138.776 117.968C138.079 117.684 137.356 117.466 136.618 117.317C136.599 117.314 136.581 117.313 136.562 117.309C135.8 117.159 135.025 117.083 134.249 117.082C133.47 117.082 132.713 117.162 131.976 117.303L131.898 117.315C131.165 117.461 130.458 117.675 129.779 117.947L129.725 117.968C129.038 118.247 128.379 118.588 127.756 118.989C127.133 119.391 126.548 119.848 126.01 120.353L125.997 120.394L125.952 120.404C125.09 121.224 124.353 122.165 123.763 123.198L123.741 123.235C123.561 123.552 123.398 123.882 123.248 124.218C123.232 124.254 123.212 124.288 123.197 124.324C123.06 124.635 122.942 124.957 122.832 125.281C122.811 125.345 122.783 125.405 122.763 125.468C122.667 125.771 122.589 126.082 122.515 126.393C122.496 126.483 122.467 126.569 122.448 126.658C122.384 126.966 122.34 127.281 122.299 127.597C122.287 127.694 122.266 127.787 122.256 127.884C122.13 129.081 122.186 130.291 122.42 131.472C122.422 131.487 122.423 131.504 122.427 131.52C122.578 132.273 122.8 132.999 123.085 133.694C123.089 133.704 123.091 133.714 123.096 133.723C123.673 135.119 124.506 136.394 125.552 137.483C126.372 138.338 127.316 139.071 128.354 139.657L128.369 139.666C128.693 139.848 129.028 140.012 129.369 140.164C129.397 140.176 129.424 140.192 129.453 140.204C129.769 140.342 130.096 140.461 130.425 140.572C130.481 140.591 130.535 140.615 130.591 140.633C130.895 140.73 131.209 140.808 131.523 140.88C131.608 140.9 131.69 140.928 131.776 140.946C132.081 141.009 132.395 141.052 132.711 141.093C132.806 141.104 132.9 141.126 132.997 141.136C135.813 141.433 138.644 140.727 140.991 139.142C142.275 138.274 143.381 137.169 144.249 135.885C145.594 133.894 146.311 131.545 146.309 129.142C146.309 129.113 146.305 129.086 146.305 129.059C146.304 129.028 146.3 128.999 146.299 128.968ZM134.249 127.555C133.654 127.555 133.065 127.438 132.515 127.21C131.966 126.982 131.466 126.648 131.046 126.228C130.625 125.807 130.291 125.307 130.064 124.758C129.836 124.208 129.719 123.619 129.719 123.024C129.719 122.429 129.836 121.84 130.064 121.29C130.292 120.741 130.625 120.241 131.046 119.821C131.467 119.4 131.966 119.066 132.516 118.839C133.066 118.611 133.655 118.494 134.25 118.494C135.451 118.494 136.604 118.972 137.453 119.821C138.303 120.671 138.78 121.823 138.78 123.025C138.78 124.227 138.302 125.379 137.453 126.228C136.603 127.078 135.45 127.555 134.249 127.555Z" fill="black"/>
<path d="M134.249 118.494C133.047 118.494 131.895 118.971 131.046 119.821C130.196 120.67 129.719 121.823 129.719 123.024C129.719 124.225 130.196 125.378 131.046 126.227C131.895 127.077 133.047 127.554 134.249 127.554C135.45 127.554 136.602 127.077 137.452 126.227C138.301 125.378 138.779 124.225 138.779 123.024C138.779 121.823 138.301 120.67 137.452 119.821C136.602 118.971 135.45 118.494 134.249 118.494Z" fill="white"/>
<path d="M125.952 120.404L125.997 120.394L126.01 120.353L134.316 94.951V89.006L134.315 88.939C129.627 87.9684 124.852 87.4759 120.065 87.469C118.44 87.469 116.828 87.538 115.226 87.647C114.993 87.663 114.759 87.677 114.525 87.695C106.188 88.328 97.9778 90.501 90.3758 93.971C83.8568 96.948 77.7998 100.869 72.3548 105.518L72.3458 105.527C70.889 106.775 69.4777 108.074 68.1148 109.424C67.8588 109.674 67.5988 109.922 67.3458 110.176C66.0575 111.475 64.8112 112.816 63.6088 114.195C63.3478 114.496 63.0908 114.803 62.8328 115.107C61.6194 116.531 60.4515 117.992 59.3308 119.49C59.2378 119.616 59.1508 119.748 59.0588 119.874C57.9958 121.326 56.9767 122.809 56.0028 124.322C55.8118 124.617 55.6158 124.908 55.4288 125.206C54.6388 126.459 53.9038 127.746 53.1738 129.036H91.0108L125.952 120.404Z" fill="#BBBCBD"/>
<path d="M157.895 117.546C157.972 116.555 158.035 115.565 158.086 114.573C158.155 113.231 158.202 111.887 158.228 110.544C158.248 109.501 158.245 108.457 158.24 107.414C158.24 107.113 158.247 106.812 158.244 106.51C158.213 103.817 158.114 101.125 157.947 98.437L157.924 98.422L157.914 98.403C156.914 97.8286 155.913 97.2566 154.911 96.687L154.841 96.647L154.058 96.204L154.044 96.196L153.501 95.892L153.394 95.832C153.263 95.7592 153.131 95.6876 152.999 95.617C151.26 94.7143 149.485 93.8806 147.68 93.118C143.377 91.301 137.581 89.708 134.316 88.939V94.951L142.549 120.394L142.558 120.415C143.408 121.225 144.139 122.156 144.725 123.182C144.917 123.518 145.093 123.866 145.252 124.221C145.256 124.229 145.26 124.236 145.262 124.243C145.421 124.597 145.561 124.96 145.684 125.331L145.694 125.356C145.816 125.727 145.921 126.105 146.007 126.49L146.015 126.52C146.101 126.909 146.168 127.306 146.216 127.708C146.216 127.714 146.218 127.72 146.219 127.725C146.266 128.133 146.293 128.548 146.299 128.968L146.33 129.036H156.411C157.087 125.336 157.574 121.604 157.868 117.855C157.875 117.752 157.887 117.649 157.895 117.546Z" fill="#E3DDDB"/>
<path d="M171.079 108.55C171.072 108.561 171.067 108.574 171.061 108.585L171.079 108.55Z" fill="#FCB03F"/>
<path d="M126.01 120.353C126.552 119.845 127.138 119.388 127.763 118.986C128.384 118.587 129.041 118.246 129.725 117.968C129.743 117.96 129.762 117.955 129.779 117.947C130.464 117.672 131.173 117.46 131.898 117.315L131.976 117.303C132.725 117.158 133.486 117.084 134.249 117.082C135.041 117.082 135.813 117.162 136.562 117.309C136.581 117.313 136.599 117.314 136.618 117.317C137.368 117.468 138.103 117.69 138.811 117.981C140.2 118.554 141.47 119.379 142.558 120.415L142.549 120.394L134.316 94.951L126.01 120.353Z" fill="#909393"/>
<path d="M123.085 133.694C122.797 132.992 122.576 132.264 122.427 131.52C122.423 131.504 122.422 131.487 122.42 131.472C122.186 130.291 122.13 129.081 122.256 127.884C122.266 127.787 122.287 127.694 122.299 127.597C122.34 127.281 122.384 126.966 122.448 126.658C122.467 126.569 122.496 126.483 122.515 126.393C122.589 126.082 122.667 125.771 122.763 125.468C122.784 125.405 122.81 125.345 122.832 125.281C122.942 124.957 123.06 124.635 123.197 124.324C123.212 124.288 123.232 124.254 123.248 124.218C123.398 123.882 123.561 123.552 123.741 123.235L123.763 123.198C124.353 122.165 125.09 121.224 125.952 120.404L91.0108 129.036H90.9438L125.552 137.483C124.506 136.394 123.673 135.119 123.096 133.723C123.091 133.714 123.089 133.704 123.085 133.694Z" fill="#676A6A"/>
<path d="M201.703 127.148C201.725 126.992 201.758 126.846 201.785 126.694C201.872 126.197 201.976 125.713 202.11 125.253C202.125 125.201 202.131 125.142 202.147 125.091L206.706 104.215L206.705 92.312C202.98 89.235 198.991 87.553 194.838 87.553C189.59 87.553 184.697 90.451 181.038 94.03C177.034 97.947 173.94 102.875 171.438 107.848C171.323 108.077 171.205 108.297 171.091 108.527C171.862 109.195 172.625 109.872 173.378 110.561C175.08 112.123 176.752 113.717 178.394 115.342C179.16 116.098 179.912 116.87 180.666 117.639C181.466 118.454 182.267 119.267 183.055 120.095C184.496 121.609 185.917 123.141 187.317 124.693C188.519 126.018 189.707 127.355 190.882 128.704L190.884 128.706C191.081 128.912 191.219 129.06 191.272 129.12H201.554C201.554 129.037 201.571 128.961 201.572 128.878C201.582 128.284 201.623 127.704 201.703 127.148ZM171.09 108.582L171.079 108.551L171.061 108.585L171.106 108.629C171.101 108.613 171.096 108.597 171.09 108.582Z" fill="#E3DDDB"/>
<path d="M46.9751 142.173L47.0671 141.943C48.4477 138.361 50.0399 134.864 51.8351 131.47C52.1131 130.942 52.3851 130.412 52.6731 129.889C52.8321 129.6 53.0121 129.324 53.1741 129.036C53.9041 127.746 54.6391 126.459 55.4291 125.206C55.6161 124.907 55.8121 124.617 56.0031 124.322C56.977 122.809 57.9961 121.326 59.0591 119.874C59.1511 119.748 59.2381 119.616 59.3311 119.49C60.4518 117.992 61.6197 116.531 62.8331 115.107C63.0911 114.803 63.3471 114.497 63.6091 114.195C64.8115 112.816 66.0578 111.475 67.3461 110.176C67.6001 109.922 67.8591 109.674 68.1151 109.424C69.478 108.074 70.8893 106.775 72.3461 105.527L72.3551 105.518C78.1061 86.254 96.6761 74.416 117.497 74.416C125.877 74.416 134.211 76.831 141.353 81.2C148.679 85.681 153.674 90.059 157.552 97.712L157.61 97.827C157.708 98.021 157.818 98.207 157.914 98.403L157.924 98.422L157.947 98.437C161.204 100.452 164.306 102.707 167.228 105.182C168.211 106.012 169.175 106.863 170.12 107.736C170.432 108.022 170.753 108.294 171.061 108.585C171.067 108.573 171.072 108.561 171.079 108.55C171.082 108.542 171.086 108.534 171.09 108.526C171.196 108.309 171.3 108.088 171.407 107.874C174.341 89.357 183.663 79.26 193.297 79.26C200.559 79.26 205.838 83.59 209.825 95.246L209.866 95.371L209.876 95.385C211.052 96.6674 212.149 98.0192 213.163 99.433L213.161 99.432C213.182 99.46 213.204 99.486 213.225 99.515C213.282 99.684 213.331 99.858 213.386 100.027L213.236 99.419C201.251 63.937 167.691 38.391 128.163 38.391C78.5831 38.391 38.3911 78.583 38.3911 128.163C38.3911 137.937 39.9531 147.347 42.8531 156.103L42.8651 156.052C43.8847 151.329 45.2586 146.69 46.9751 142.173Z" fill="#525353"/>
<path d="M214.577 129.155L211.446 132.658V132.657L211.439 132.68C211.32 133.141 211.174 133.571 211.013 133.986C210.971 134.095 210.924 134.198 210.878 134.304C210.758 134.59 210.624 134.869 210.475 135.141C210.398 135.283 210.322 135.427 210.239 135.56C210.109 135.768 209.969 135.957 209.827 136.143C209.631 136.4 209.415 136.641 209.179 136.862C209.086 136.949 208.996 137.044 208.898 137.122C208.663 137.308 208.409 137.469 208.14 137.601C207.691 137.82 207.22 137.948 206.73 137.948C203.885 137.948 201.578 133.996 201.578 129.12H191.241L191.247 129.128C193.189 131.373 195.101 133.644 196.981 135.94C198.788 138.148 200.573 140.375 202.335 142.619L202.595 142.948C204.265 145.08 205.92 147.223 207.559 149.378L208.037 150.002C209.779 152.295 211.509 154.596 213.228 156.905C216.253 147.95 217.842 138.572 217.936 129.12L215.03 129.01L214.577 129.155Z" fill="white"/>
<path d="M114.525 87.695C114.759 87.677 114.993 87.663 115.226 87.647C116.836 87.5328 118.45 87.4734 120.065 87.469C124.933 87.469 129.689 87.99 134.315 88.939C137.58 89.708 143.377 91.301 147.68 93.118C149.485 93.8806 151.26 94.7143 152.999 95.617L153.394 95.832L153.501 95.892C153.662 95.982 153.838 96.079 154.044 96.196L154.058 96.204L154.841 96.647L154.911 96.687C156.017 97.314 157.241 98.017 157.709 98.285L157.829 98.354L157.914 98.403C157.818 98.207 157.708 98.021 157.61 97.827L157.552 97.712C153.674 90.059 147.704 83.495 140.378 79.014C133.236 74.645 124.902 72.23 116.521 72.23C95.701 72.23 78.106 86.254 72.355 105.518C77.8 100.869 83.857 96.948 90.376 93.971C97.978 90.501 106.188 88.328 114.525 87.695Z" fill="black"/>
<path d="M213.225 99.515C213.204 99.486 213.182 99.46 213.161 99.432L213.163 99.433C212.149 98.0192 211.052 96.6674 209.876 95.385L209.847 95.35C209.346 94.8061 208.829 94.2775 208.296 93.765C208.099 93.576 207.895 93.411 207.696 93.23C207.367 92.931 207.04 92.622 206.706 92.348V104.257L211.265 125.135C211.315 125.297 211.375 125.448 211.419 125.616L214.577 129.155L214.608 129.12H217.913C217.917 128.814 217.936 128.512 217.936 128.205V128.2C217.934 118.626 216.398 109.114 213.386 100.026C213.331 99.857 213.282 99.684 213.225 99.515Z" fill="#BBBCBD"/>
<path d="M181.038 94.03C184.697 90.451 189.59 87.553 194.838 87.553C198.991 87.553 202.98 89.235 206.705 92.312L206.706 92.348C207.04 92.622 207.367 92.931 207.696 93.23C207.895 93.411 208.099 93.576 208.296 93.765C208.829 94.2775 209.346 94.806 209.847 95.35L209.876 95.385C209.874 95.3806 209.871 95.3765 209.867 95.373L209.866 95.372L209.825 95.246C205.838 83.59 199.405 76.017 192.145 76.017C182.51 76.017 174.341 89.357 171.407 107.874L171.438 107.848C173.94 102.875 177.034 97.947 181.038 94.03ZM168.019 207.836C168.019 207.836 166.722 206.808 165.075 204.913C164.309 204.037 163.594 203.116 162.936 202.156C162.726 201.85 162.518 201.532 162.311 201.204C161.688 200.219 161.191 199.02 160.643 197.835C160.009 196.463 160.007 195.55 159.643 194.272C159.375 193.331 159.162 192.375 159.006 191.409C158.753 189.846 158.652 188.263 158.703 186.681C158.731 185.768 158.825 184.823 158.962 183.861C159.098 182.906 159.284 181.958 159.519 181.022C160.245 178.119 161.5 175.027 163.458 171.763L163.956 170.645C164.596 169.579 164.738 169.626 165.346 168.599C173.91 154.146 178.53 143.217 176.27 126.389C176.022 124.665 175.741 122.946 175.426 121.233C175.229 122.475 175.021 123.714 174.801 124.952C174.716 125.336 174.483 125.753 174.395 126.014C170.675 137.024 164.819 145.123 156.393 154.268C155.22 155.536 154.032 156.791 152.831 158.033C150.685 160.252 148.517 162.448 146.326 164.623C145.414 165.53 144.484 166.45 143.538 167.388C142.669 168.248 141.588 170.087 140.298 171.442C139.502 173.671 138.597 176.185 137.832 178.829C137.487 178.698 137.158 178.581 136.807 178.445C120.439 172.114 109.48 163.655 109.48 163.655C109.48 163.655 117.912 174.634 132.118 184.94C133.424 185.886 134.779 186.764 136.177 187.568C135.591 196.844 139.683 205.749 158.154 208.405C161.277 208.854 164.475 208.833 167.696 208.47C167.664 208.374 167.876 208.376 167.859 208.323C167.841 208.269 168.031 208.127 168.031 208.127" fill="black"/>
<path d="M158.139 183.959C174.537 186.605 198.806 186.171 224 174.375C224.607 174.091 225.276 174.839 225.883 174.541C225.883 174.541 208.664 192.128 188.1 202.071C187.499 202.361 186.906 202.67 186.299 202.946C184.312 203.854 182.291 204.645 180.262 205.375C176.283 206.805 172.251 207.89 168.248 208.391C168.064 208.415 167.88 208.45 167.696 208.47C167.671 208.394 167.646 208.319 167.621 208.243L167.594 208.16C167.594 208.16 166.296 207.131 164.649 205.236C163.882 204.36 163.168 203.44 162.511 202.479C161.593 201.146 160.79 199.738 160.11 198.269C159.535 197.029 159.058 195.746 158.683 194.432C157.978 191.966 157.66 189.405 157.742 186.841C157.777 185.897 157.863 184.956 158.001 184.021L158.139 183.959Z" fill="#9F2254"/>
<path d="M146.386 165.29C148.577 163.116 150.746 160.919 152.892 158.7C154.093 157.458 155.28 156.203 156.454 154.935C164.879 145.79 171.064 137.232 174.785 126.222C174.872 125.961 174.96 125.617 175.045 125.23L175.085 125.051C175.172 124.64 175.257 124.183 175.342 123.668C175.376 123.313 176.489 122.597 176.52 122.264C175.587 117.47 173.437 112.43 171.09 108.582C171.096 108.598 171.101 108.613 171.106 108.629L171.061 108.585C170.753 108.294 170.432 108.022 170.12 107.736C169.175 106.863 168.211 106.012 167.228 105.182C164.306 102.707 161.203 100.452 157.947 98.437C158.111 101.131 158.216 103.822 158.244 106.51C158.248 106.812 158.24 107.113 158.24 107.414C158.245 108.457 158.248 109.501 158.228 110.544C158.202 111.888 158.155 113.231 158.086 114.573C158.035 115.565 157.972 116.555 157.895 117.546C157.887 117.649 157.875 117.752 157.868 117.855C157.573 121.604 157.087 125.336 156.411 129.036L155.227 134.635C152.754 144.661 147.731 153.755 143.601 163.145C142.506 165.635 141.467 168.153 140.556 170.718L140.298 171.442C141.382 170.298 142.482 169.169 143.598 168.055C144.545 167.118 145.475 166.197 146.386 165.29Z" fill="#FCB03F"/>
<path d="M92.1981 219.213C98.2071 216.555 103.768 214.886 110.378 213.583C110.345 212.152 110.27 210.722 110.154 209.295C112.978 201.985 115.582 194.593 117.962 187.127C113.751 187.537 109.566 188.184 105.428 189.064C102.361 189.715 99.3351 190.533 96.3341 191.437C93.9231 192.163 91.5441 192.997 89.1841 193.884L98.5151 196.144L91.0071 219.71L92.1981 219.213Z" fill="#525353"/>
<path d="M207.559 149.378C205.92 147.223 204.265 145.08 202.595 142.948L202.335 142.619C200.551 140.347 198.744 138.093 196.914 135.858C195.055 133.589 193.166 131.346 191.247 129.128C191.126 128.987 191.005 128.844 190.882 128.704C189.301 126.888 187.695 125.093 186.066 123.319C185.072 122.235 184.069 121.16 183.055 120.095C182.265 119.27 181.469 118.451 180.666 117.639C179.912 116.87 179.16 116.098 178.394 115.342C176.751 113.718 175.079 112.124 173.378 110.561C172.624 109.873 171.862 109.194 171.09 108.526C171.086 108.534 171.082 108.542 171.079 108.55C172.701 113.212 174.552 117.932 175.479 122.794C175.72 124.059 175.919 125.289 176.081 126.491C178.341 143.318 172.949 154.305 164.386 168.758C163.759 169.814 163.129 170.869 162.497 171.922C160.539 175.188 159.285 178.279 158.558 181.182C158.323 182.118 158.138 183.066 158.001 184.021C174.794 186.731 200.046 187.236 225.883 174.541C225.883 174.541 220.816 167.094 213.192 156.857C211.485 154.564 209.766 152.279 208.037 150.002C207.879 149.793 207.718 149.585 207.559 149.378Z" fill="#DF0067"/>
<path d="M90.1152 223.922L98.5152 196.144L89.1842 193.884C87.0942 194.669 85.0231 195.506 82.9791 196.416L74.6602 223.922L83.9472 224.067L90.1152 223.922Z" fill="#AA9678"/>
<path d="M96.0202 211.904C96.8402 212.219 97.6742 212.503 98.5062 212.794C108.036 216.138 118.064 217.845 128.164 217.841C139.654 217.848 151.037 215.641 161.692 211.343C162.24 211.123 162.777 210.881 163.319 210.65C164.198 210.277 165.071 209.89 165.938 209.489C166.712 209.129 167.486 208.772 168.248 208.391C168.064 208.415 167.88 208.45 167.696 208.47C164.475 208.833 161.277 208.854 158.154 208.405C139.683 205.749 135.591 196.844 136.177 187.568C134.779 186.764 133.424 185.886 132.118 184.94C117.912 174.634 109.48 163.655 109.48 163.655C109.48 163.655 120.439 172.114 136.807 178.445C137.158 178.581 137.487 178.698 137.832 178.829C138.597 176.185 139.502 173.671 140.298 171.442L140.556 170.718C141.467 168.153 142.506 165.635 143.601 163.145C147.731 153.755 152.754 144.661 155.227 134.635L156.411 129.036H146.309L146.308 129.037L146.309 129.057L146.305 129.059C146.305 129.086 146.309 129.113 146.309 129.142C146.312 131.545 145.594 133.894 144.249 135.885C142.938 137.822 141.096 139.339 138.943 140.253C137.068 141.047 135.022 141.35 132.997 141.136C132.9 141.126 132.807 141.105 132.711 141.093C132.395 141.052 132.081 141.009 131.776 140.946C131.69 140.927 131.608 140.9 131.523 140.88C131.209 140.808 130.895 140.73 130.591 140.633C130.535 140.614 130.481 140.591 130.425 140.572C130.096 140.461 129.769 140.342 129.453 140.204C129.424 140.192 129.397 140.177 129.369 140.164C129.028 140.014 128.695 139.847 128.369 139.666L128.354 139.657C127.319 139.073 126.375 138.341 125.552 137.483L90.9442 129.036H53.1742C53.0122 129.324 52.8322 129.6 52.6732 129.889C52.3852 130.412 52.1132 130.943 51.8352 131.47C50.907 133.223 50.0333 135.005 49.2152 136.812C48.4503 138.501 47.734 140.212 47.0672 141.943L46.9752 142.173C45.2587 146.69 43.8848 151.329 42.8652 156.052C48.8112 174.188 60.3802 189.772 75.5032 200.756C75.9432 201.075 76.4072 201.359 76.8532 201.671C79.4124 203.468 82.0637 205.13 84.7962 206.65C88.4107 208.66 92.1612 210.416 96.0202 211.904Z" fill="white"/>
<path d="M186.58 233.374C186.338 230.973 186.213 228.563 186.204 226.15C186.204 225.448 185.925 224.774 185.429 224.277C184.932 223.78 184.259 223.501 183.556 223.501H72.4442C71.7417 223.501 71.0681 223.78 70.5714 224.277C70.0747 224.774 69.7955 225.448 69.7952 226.15C69.7952 228.582 69.6522 230.988 69.4192 233.374C69.1602 235.996 68.76 238.603 68.2202 241.182C69.8312 242.034 71.4552 242.863 73.1072 243.649C74.212 238.828 74.8589 233.914 75.0392 228.971C75.0422 228.914 75.0482 228.856 75.0502 228.799H180.95C180.952 228.856 180.958 228.914 180.96 228.971C181.141 233.914 181.789 238.828 182.893 243.649C184.539 242.861 186.169 242.039 187.78 241.182C187.241 238.603 186.84 235.996 186.58 233.374Z" fill="#8B7460"/>
</g>
<defs>
<clipPath id="clip0_418_166">
<rect width="256" height="256" fill="white"/>
</clipPath>
</defs>
</svg>
