<svg width="261" height="261" viewBox="0 0 261 261" fill="none" xmlns="http://www.w3.org/2000/svg">
<g clip-path="url(#clip0_418_261)">
<path d="M199.828 0H61.1719C27.3876 0 0 27.3876 0 61.1719V199.828C0 233.612 27.3876 261 61.1719 261H199.828C233.612 261 261 233.612 261 199.828V61.1719C261 27.3876 233.612 0 199.828 0Z" fill="#242938"/>
<path d="M130.501 149.821C141.006 149.821 149.521 141.305 149.521 130.801C149.521 120.297 141.006 111.78 130.501 111.78C119.997 111.78 111.48 120.297 111.48 130.801C111.48 141.305 119.997 149.821 130.501 149.821Z" fill="#00D8FF"/>
<path d="M130.502 92.1279C156.039 92.1279 179.763 95.7921 197.65 101.951C219.202 109.37 232.453 120.617 232.453 130.801C232.453 141.413 218.41 153.361 195.266 161.029C177.769 166.826 154.743 169.852 130.502 169.852C105.648 169.852 82.112 167.011 64.417 160.965C42.0302 153.313 28.5469 141.211 28.5469 130.801C28.5469 120.699 41.1993 109.539 62.4483 102.132C80.4023 95.8716 104.711 92.1279 130.498 92.1279H130.502Z" stroke="#00D8FF" stroke-width="3.48086"/>
<path d="M96.8362 111.575C109.595 89.4537 124.619 70.733 138.891 58.3151C156.084 43.3515 172.448 37.4912 181.269 42.5777C190.462 47.8792 193.797 66.0146 188.877 89.8941C185.161 107.947 176.277 129.404 164.166 150.404C151.749 171.935 137.532 190.904 123.455 203.208C105.643 218.778 88.422 224.413 79.4042 219.212C70.6536 214.17 67.3075 197.632 71.5059 175.523C75.0529 156.843 83.9544 133.914 96.8321 111.575H96.8362Z" stroke="#00D8FF" stroke-width="3.48086"/>
<path d="M96.8675 150.46C84.0734 128.363 75.3625 105.993 71.7269 87.4268C67.35 65.0573 70.4443 47.9547 79.2581 42.8529C88.4431 37.5351 105.819 43.7032 124.05 59.8913C137.834 72.1298 151.988 90.5395 164.134 111.519C176.587 133.029 185.919 154.822 189.55 173.161C194.144 196.37 190.426 214.103 181.416 219.317C172.675 224.378 156.677 219.021 139.619 204.342C125.207 191.94 109.788 172.778 96.8675 150.46Z" stroke="#00D8FF" stroke-width="3.48086"/>
</g>
<defs>
<clipPath id="clip0_418_261">
<rect width="261" height="261" fill="white"/>
</clipPath>
</defs>
</svg>
