<svg width="219" height="250" viewBox="0 0 219 250" fill="none" xmlns="http://www.w3.org/2000/svg">
<g clip-path="url(#clip0_420_352)">
<path d="M191.423 49.0925C191.252 47.8425 190.158 47.1507 189.253 47.0745C182.587 46.5731 175.919 46.0756 169.252 45.5822C169.252 45.5822 155.988 32.4016 154.532 30.9426C153.075 29.4846 150.23 29.9281 149.126 30.2534C148.963 30.3014 146.228 31.1464 141.703 32.548C137.272 19.786 129.452 8.05823 115.695 8.05823C115.315 8.05823 114.924 8.07364 114.533 8.0959C110.621 2.91696 105.774 0.666962 101.588 0.666962C69.5408 0.666962 54.2303 40.7654 49.4299 61.1421C36.9772 65.0043 28.1308 67.75 27.0009 68.1053C20.05 70.2877 19.8302 70.5069 18.9175 77.0625C18.2306 82.0257 0.043457 222.804 0.043457 222.804L141.762 249.381L218.549 232.754C218.549 232.754 191.593 50.3425 191.423 49.0925ZM133.87 34.9726L121.878 38.6875C121.883 37.8416 121.887 37.0094 121.887 36.0993C121.887 28.1678 120.787 21.7817 119.022 16.7192C126.111 17.6096 130.832 25.6824 133.87 34.9726ZM110.229 18.292C112.2 23.2346 113.481 30.3279 113.481 39.8998C113.481 40.3896 113.477 40.8373 113.472 41.2903C105.674 43.7081 97.1996 46.3331 88.7065 48.9666C93.4753 30.5454 102.414 21.6481 110.229 18.292ZM100.708 9.27056C102.091 9.27056 103.484 9.74059 104.818 10.6593C94.547 15.4966 83.5383 27.6798 78.8893 52.0094L59.313 58.0779C64.7583 39.5206 77.6892 9.27056 100.708 9.27056Z" fill="#95BF46"/>
<path d="M189.253 47.0745C182.587 46.5731 175.919 46.0756 169.252 45.5822C169.252 45.5822 155.988 32.4015 154.532 30.9426C153.987 30.3998 153.252 30.1216 152.484 30.0017L141.769 249.379L218.549 232.754C218.549 232.754 191.593 50.3425 191.424 49.0925C191.252 47.8425 190.158 47.1507 189.253 47.0745Z" fill="#5E8E3E"/>
<path d="M115.695 89.542L106.227 117.732C106.227 117.732 97.9311 113.301 87.7623 113.301C72.8547 113.301 72.1045 122.664 72.1045 125.024C72.1045 137.899 105.636 142.832 105.636 172.99C105.636 196.717 90.6004 211.995 70.3279 211.995C46.0008 211.995 33.5601 196.841 33.5601 196.841L40.0738 175.3C40.0738 175.3 52.8618 186.289 63.6524 186.289C70.7034 186.289 73.5715 180.732 73.5715 176.672C73.5715 159.878 46.0623 159.128 46.0623 131.532C46.0623 108.305 62.7184 85.8279 96.3401 85.8279C109.295 85.8279 115.695 89.542 115.695 89.542Z" fill="white"/>
</g>
<defs>
<clipPath id="clip0_420_352">
<rect width="219" height="250" fill="white"/>
</clipPath>
</defs>
</svg>
