<svg width="241" height="333" viewBox="0 0 241 333" fill="none" xmlns="http://www.w3.org/2000/svg">
<path d="M185.152 154.167C180.494 156.123 183.55 163.896 190.073 166.491C193.899 168.015 208.173 168.911 208.921 167.713C213.461 160.341 195.317 149.977 185.152 154.167Z" fill="#64A2FF"/>
<path d="M131.528 130.191C144.933 135.122 238.414 146.434 247.191 144.266C251.946 143.107 248.295 134.432 242.361 132.616C235.485 130.403 165.257 123.786 132.982 122.685C128.537 122.477 127.392 128.617 131.528 130.191Z" fill="#64A2FF"/>
<path d="M252.342 247.869C266.927 250.232 270.714 249.478 268.902 244.739C265.406 235.381 256.58 236.442 243.787 234.198C235.034 232.731 240.615 246.017 252.342 247.869Z" fill="#64A2FF"/>
<path d="M235.603 209.427C225.671 206.401 209.61 204.092 189.163 202.928C180.454 202.445 163.483 200.478 151.445 198.576C129.975 195.171 127.321 195.083 128.736 197.803C129.888 200.163 130.451 200.327 164.346 207.406C198.364 214.481 223.949 218.968 236.81 219.977C252.95 221.298 248.718 213.383 235.603 209.427Z" fill="#64A2FF"/>
<path d="M220.81 232.942C213.646 231.171 198.644 229.131 166.714 224.69C122.571 218.539 95.8672 213.846 90.7694 214.217L86.9606 214.479C87.6656 219.258 87.4547 222.839 100.553 226.426C118.147 231.328 186.879 240.34 214.366 241.863C229.752 242.842 231.651 235.626 220.81 232.942Z" fill="#64A2FF"/>
<path d="M10.1825 163.014C16.9246 164.985 171.23 188.985 221.107 193.818C242.395 195.875 235.78 187.061 223.286 183.205C207.292 178.245 195.071 180.539 69.9443 160.094C19.7967 151.945 4.95051 150.639 1.65834 154.208C-0.340484 156.375 4.5641 161.371 10.1825 163.014Z" fill="#64A2FF"/>
<path d="M107.833 146.085C97.3535 145.974 73.6424 143.452 67.0724 142.582C64.1675 142.38 67.7719 147.238 71.1375 148.101C128.529 162.577 189.105 166.896 177.541 156.231C172.723 151.787 135.506 146.246 107.833 146.085Z" fill="#64A2FF"/>
<path d="M88.0353 127.588C112.514 133.533 118.537 133.19 115.492 125.663C113.074 119.777 111.26 119.165 91.5777 117.173C65.7696 114.603 68.7892 122.931 88.0353 127.588Z" fill="#64A2FF"/>
<path d="M243.825 111.434C255.376 113.476 259.119 111.738 256.621 105.423C253.978 98.621 243.843 95.1717 234.97 97.9592C230.355 99.4827 237.49 110.31 243.825 111.434Z" fill="#64A2FF"/>
<path d="M115.983 99.2196C127.753 100.638 155.904 103.245 183.645 107.716C222.06 113.891 231.512 113.053 226.192 104.254C222.935 98.8909 206.874 96.5817 173.75 97.174C161.746 97.4271 132.596 95.9033 117.686 94.5377C109.58 93.7862 108.054 98.2768 115.983 99.2196Z" fill="#64A2FF"/>
</svg>
