<svg width="50" height="50" viewBox="0 0 120 120" fill="none" xmlns="http://www.w3.org/2000/svg">
    <path d="M107.743 45.6186L65.7425 87.7437C65.2425 88.2437 64.7009 88.597 64.1176 88.8037C63.5342 89.0137 62.9092 89.1187 62.2426 89.1187C61.5759 89.1187 60.9509 89.0137 60.3676 88.8037C59.7842 88.597 59.2426 88.2437 58.7426 87.7437L16.6176 45.6186C15.4509 44.452 14.8676 42.9936 14.8676 41.2436C14.8676 39.4936 15.4926 37.9937 16.7426 36.7437C17.9926 35.4937 19.4509 34.8687 21.1176 34.8687C22.7842 34.8687 24.2426 35.4937 25.4926 36.7437L62.2426 73.4937L98.9926 36.7437C100.159 35.577 101.596 34.9936 103.303 34.9936C105.013 34.9936 106.493 35.6186 107.743 36.8686C108.993 38.1186 109.618 39.577 109.618 41.2436C109.618 42.9103 108.993 44.3686 107.743 45.6186Z" style="fill: var(--c0);"/>
</svg>
