<svg width="276" height="232" viewBox="0 0 276 232" fill="none" xmlns="http://www.w3.org/2000/svg">
<g clip-path="url(#clip0_420_345)">
<path d="M123.186 2.91457L20.3337 45.5109C14.6142 47.8794 14.6735 56.0102 20.4296 58.2946L123.711 99.2874C132.785 102.89 142.891 102.89 151.966 99.2874L255.249 58.2935C261.003 56.0113 261.063 47.8805 255.342 45.5109L152.492 2.91349C143.109 -0.972345 132.569 -0.971266 123.186 2.91457Z" fill="#FFBF00"/>
<path d="M147.003 121.673V224.079C147.003 228.949 151.908 232.285 156.432 230.49L271.519 185.779C272.803 185.27 273.904 184.386 274.679 183.243C275.455 182.1 275.87 180.75 275.869 179.368V76.9614C275.869 72.0905 270.963 68.7562 266.439 70.5507L151.352 115.261C150.068 115.77 148.967 116.654 148.192 117.797C147.416 118.941 147.001 120.291 147.001 121.673" fill="#26B5F8"/>
<path d="M120.128 126.957L85.9732 143.462L82.5049 145.14L10.4044 179.717C5.83421 181.924 0.000488281 178.59 0.000488281 173.509V77.3909C0.000488281 75.5522 0.942768 73.9648 2.20633 72.7692C2.724 72.2537 3.31115 71.8131 3.95073 71.4603C5.67357 70.4255 8.13169 70.1492 10.2211 70.9769L119.554 114.334C125.111 116.541 125.548 124.336 120.128 126.957Z" fill="#ED3049"/>
<path d="M120.128 126.957L85.9731 143.462L2.20508 72.7703C2.72275 72.2547 3.3099 71.8142 3.94948 71.4614C5.67232 70.4266 8.13044 70.1503 10.2198 70.978L119.552 114.335C125.11 116.542 125.548 124.336 120.128 126.957Z" fill="black" fill-opacity="0.25"/>
</g>
<defs>
<clipPath id="clip0_420_345">
<rect width="276" height="232" fill="white"/>
</clipPath>
</defs>
</svg>
