<svg width="241" height="241" viewBox="0 0 241 241" fill="none" xmlns="http://www.w3.org/2000/svg">
<path d="M117.989 114.521H93.2348V74.9388H122.772C137.839 74.9388 146.21 81.6354 146.21 93.9525C146.21 107.346 136.285 114.521 117.989 114.521ZM122.413 128.034H93.2348V171.562H123.848C142.503 171.562 152.309 164.028 152.309 149.678C152.309 135.328 142.144 128.034 122.413 128.034ZM240.083 40.4988V200.501C240.083 222.146 222.146 240.083 200.501 240.083H40.4986C18.854 240.083 0.916504 222.146 0.916504 200.501V40.4988C0.916504 18.8542 18.854 0.916687 40.4986 0.916687H200.501C222.146 0.916687 240.083 18.8542 240.083 40.4988ZM168.333 150.396C168.333 133.893 157.331 122.055 140.47 119.902V119.185C152.429 117.032 161.876 105.074 161.876 92.1588C161.876 73.6233 147.526 61.3063 126.479 61.3063H77.8086V185.195H126.12C152.548 185.195 168.333 172.16 168.333 150.396Z" fill="black"/>
</svg>
