<svg width="276" height="276" viewBox="0 0 276 276" fill="none" xmlns="http://www.w3.org/2000/svg">
<g clip-path="url(#clip0_421_360)">
<path fill-rule="evenodd" clip-rule="evenodd" d="M174.478 0H126.454V68.218C119.618 66.5689 112.601 65.796 105.57 65.918C55.384 65.9065 23 95.5075 23 141.139C23 188.496 53.5325 213.164 112.183 213.222C131.767 213.222 149.879 211.496 174.478 207.126V0ZM111.941 103.236C117.875 103.236 122.521 103.811 128.133 105.536V177.388C121.279 178.25 116.955 178.537 111.642 178.537C87.032 178.537 73.6345 165.404 73.6345 141.622C73.6345 117.185 87.6645 103.236 111.941 103.236Z" fill="black"/>
<path d="M253 175.179V71.4725H205.045V159.735C205.045 198.686 202.883 213.486 196.017 226.274C189.462 238.775 179.204 246.974 158.01 256.243L202.572 276C223.767 266.087 234.025 257.106 241.81 242.88C250.159 228.068 253 210.887 253 175.179ZM248.216 0H200.215V45.9195H248.227L248.216 0Z" fill="black"/>
</g>
<defs>
<clipPath id="clip0_421_360">
<rect width="276" height="276" fill="white"/>
</clipPath>
</defs>
</svg>
