<svg width="234" height="234" viewBox="0 0 234 234" fill="none" xmlns="http://www.w3.org/2000/svg">
<g clip-path="url(#clip0_419_341)">
<path d="M229.583 106.572L127.413 4.41675C126.014 3.01716 124.353 1.90691 122.525 1.14942C120.697 0.391927 118.737 0.00204468 116.759 0.00204468C114.78 0.00204468 112.82 0.391927 110.992 1.14942C109.164 1.90691 107.503 3.01716 106.104 4.41675L84.898 25.623L111.808 52.533C114.982 51.4494 118.396 51.2799 121.662 52.0438C124.927 52.8077 127.912 54.4742 130.276 56.8531C132.639 59.2321 134.287 62.2276 135.029 65.4979C135.772 68.7681 135.581 72.1813 134.477 75.348L160.407 101.293C164.243 99.942 168.425 99.9379 172.264 101.281C176.103 102.624 179.37 105.235 181.527 108.683C183.685 112.131 184.604 116.21 184.133 120.25C183.662 124.29 181.829 128.049 178.937 130.908C176.009 133.854 172.148 135.693 168.016 136.109C163.883 136.525 159.734 135.493 156.277 133.19C152.82 130.887 150.271 127.455 149.063 123.48C147.856 119.506 148.066 115.235 149.658 111.399L125.482 87.2089V150.871C129.157 152.69 132.097 155.714 133.813 159.438C135.529 163.162 135.916 167.361 134.911 171.336C133.906 175.311 131.569 178.822 128.289 181.283C125.01 183.744 120.986 185.006 116.888 184.86C112.791 184.713 108.867 183.167 105.771 180.478C102.675 177.79 100.595 174.122 99.8757 170.085C99.1567 166.048 99.8429 161.887 101.82 158.295C103.797 154.703 106.945 151.897 110.74 150.345V86.0974C108.551 85.2002 106.561 83.8785 104.884 82.2085C103.208 80.5385 101.879 78.5532 100.973 76.3671C100.068 74.181 99.6041 71.8373 99.6087 69.4711C99.6133 67.1048 100.086 64.763 101 62.5804L74.4851 36.0506L4.43131 106.104C3.03172 107.503 1.92146 109.164 1.16397 110.992C0.406484 112.82 0.0166016 114.78 0.0166016 116.759C0.0166016 118.738 0.406484 120.697 1.16397 122.525C1.92146 124.353 3.03172 126.014 4.43131 127.413L106.602 229.583C108 230.983 109.661 232.093 111.489 232.851C113.318 233.608 115.277 233.998 117.256 233.998C119.235 233.998 121.194 233.608 123.022 232.851C124.85 232.093 126.511 230.983 127.91 229.583L229.598 127.896C232.421 125.069 234.006 121.237 234.006 117.241C234.006 113.246 232.421 109.414 229.598 106.587" fill="black"/>
</g>
<defs>
<clipPath id="clip0_419_341">
<rect width="234" height="234" fill="white"/>
</clipPath>
</defs>
</svg>
