<svg width="161" height="183" viewBox="0 0 161 183" fill="none" xmlns="http://www.w3.org/2000/svg">
<g clip-path="url(#clip0_419_295)">
<path d="M160.714 0.498283L146.098 164.215L80.402 182.427L14.8867 164.24L0.286621 0.498283H160.714Z" fill="#E44D26"/>
<path d="M80.5 168.506L133.586 153.79L146.075 13.8863H80.5V168.506Z" fill="#F16529"/>
<path d="M52.0885 54.0514H80.5002V33.9692H30.1396L30.6201 39.3568L35.5566 94.6983H80.5002V74.616H53.9242L52.0885 54.0514ZM56.615 104.74H36.454L39.2675 136.272L80.4077 147.691L80.5002 147.666V126.772L80.4121 126.795L58.0451 120.756L56.615 104.74Z" fill="#EBEBEB"/>
<path d="M80.4308 94.6983H105.162L102.83 120.744L80.4302 126.789V147.682L121.603 136.272L121.905 132.879L126.625 80.0087L127.115 74.616H80.4308V94.6983ZM80.4308 54.0024V54.0514H128.943L129.345 49.5378L130.261 39.3568L130.74 33.9692H80.4308V54.0024Z" fill="white"/>
</g>
<defs>
<clipPath id="clip0_419_295">
<rect width="161" height="183" fill="white"/>
</clipPath>
</defs>
</svg>
