<svg width="242" height="242" viewBox="0 0 242 242" fill="none" xmlns="http://www.w3.org/2000/svg">
<g clip-path="url(#clip0_420_350)">
<path d="M121 0C114.133 0 107.398 0.57475 100.833 1.67383V42.9147C107.421 41.2176 114.197 40.3604 121 40.3636C127.957 40.3636 134.713 41.2509 141.167 42.9147V1.67383C134.612 0.564667 127.857 0 121 0ZM80.6868 6.88692C33.6985 23.5143 0 68.365 0 121C0 187.782 54.2181 242 121 242C187.782 242 242 187.782 242 121C242 68.365 208.301 23.5143 161.323 6.88692V51.1729C176.696 60.0483 188.71 73.7482 195.503 90.1479C202.296 106.548 203.488 124.73 198.894 141.876C194.3 159.022 184.176 174.173 170.093 184.979C156.011 195.785 138.756 201.643 121.005 201.643C103.254 201.643 85.9994 195.785 71.9167 184.979C57.834 174.173 47.7105 159.022 43.1162 141.876C38.522 124.73 39.7138 106.548 46.5067 90.1479C53.2997 73.7482 65.3142 60.0483 80.6868 51.1729V6.88692ZM121 60.5302C113.942 60.5302 107.145 61.7402 100.833 63.9787V157.955C107.309 160.249 114.13 161.418 121 161.414C127.869 161.418 134.689 160.252 141.167 157.965V63.9787C134.69 61.6883 127.87 60.522 121 60.5302Z" fill="black"/>
</g>
<defs>
<clipPath id="clip0_420_350">
<rect width="242" height="242" fill="white"/>
</clipPath>
</defs>
</svg>
