<svg width="221" height="221" viewBox="0 0 221 221" fill="none" xmlns="http://www.w3.org/2000/svg">
<path fill-rule="evenodd" clip-rule="evenodd" d="M150.658 172.896C150.95 172.335 151.23 171.84 151.468 171.327C151.618 170.999 151.85 170.933 152.176 170.942C154.132 170.997 156.088 171.057 158.046 171.076C159.709 171.094 161.375 171.063 163.039 171.044C164.914 171.021 166.789 170.923 168.663 170.976C171.158 171.049 173.589 171.537 175.845 172.648C178.54 173.975 180.58 175.997 181.969 178.661C182.843 180.35 183.389 182.19 183.577 184.083C183.874 186.859 183.679 189.571 182.798 192.227C181.707 195.518 179.635 198.037 176.757 199.924C174.542 201.376 172.112 202.234 169.509 202.724C166.753 203.244 163.989 203.077 161.225 203.085C158.193 203.097 155.163 203.032 152.131 202.997C151.601 202.992 151.525 202.892 151.665 202.386L151.794 201.92C152.09 200.991 152.248 200.949 153.191 200.794C153.859 200.689 154.498 200.446 155.068 200.081C155.386 199.87 155.517 199.321 155.641 198.898C155.748 198.529 155.753 198.123 155.757 197.733C155.8 191.819 155.845 185.908 155.869 179.998C155.876 178.503 155.838 177.008 155.757 175.515C155.698 174.471 155.14 173.756 153.897 173.509C152.93 173.318 151.957 173.169 150.985 172.998L150.658 172.896ZM178.414 187.215C178.283 186.037 178.219 184.849 178.009 183.689C177.505 180.904 176.286 178.478 174.145 176.577C170.683 173.506 166.515 173.033 162.147 173.399C161.152 173.482 160.938 173.822 160.923 174.844C160.898 176.294 160.874 177.744 160.873 179.195C160.866 183.794 160.866 188.394 160.873 192.993C160.874 194.302 160.888 195.611 160.926 196.916C160.968 198.253 161.453 199.383 162.761 199.901C164.825 200.718 166.995 200.815 169.16 200.482C172.618 199.951 175.037 197.937 176.66 194.917C177.945 192.52 178.307 189.905 178.414 187.215ZM186.821 202.876C186.78 202.16 187.073 201.568 187.436 201.024C187.534 200.877 187.873 200.884 188.106 200.837L190.084 200.445C190.784 200.297 191.151 199.827 191.25 199.142C191.315 198.689 191.377 198.232 191.383 197.774C191.43 194.154 191.463 190.533 191.484 186.912C191.502 183.287 191.488 179.661 191.488 176.035L191.472 175.343C191.402 174.177 190.839 173.573 189.682 173.402L187.173 173.021C186.864 172.979 186.752 172.831 186.864 172.556C187.058 172.088 187.242 171.603 187.515 171.182C187.617 171.026 187.961 170.966 188.192 170.971C189.39 170.988 190.588 171.078 191.787 171.076L202.217 171.014C204.227 171.013 206.167 171.363 207.97 172.325C209.954 173.381 211.064 175.016 211.381 177.244C211.713 179.583 211.003 181.555 209.294 183.121C208.591 183.767 207.681 184.188 206.866 184.713L206.601 184.879C207.357 185.157 208.077 185.397 208.778 185.683C210.829 186.524 212.461 187.838 213.324 189.936C214.006 191.591 214.006 193.318 213.602 195.034C212.973 197.721 211.204 199.508 208.902 200.86C206.742 202.129 204.404 202.868 201.915 202.992C199.618 203.108 197.312 203.064 195.01 203.09L193.677 203.097C191.459 203.046 189.241 202.991 187.023 202.932L186.821 202.876ZM196.381 192.363H196.403C196.403 193.499 196.388 194.635 196.409 195.771C196.422 196.507 196.397 197.263 196.555 197.971C196.794 199.029 197.277 199.984 198.465 200.288C200.053 200.705 201.712 200.778 203.33 200.502C205.363 200.148 206.984 199.13 207.873 197.194C208.533 195.756 208.631 194.231 208.405 192.674C208.104 190.623 207.015 189.135 205.204 188.159C204.016 187.518 202.749 187.127 201.398 187.075C199.886 187.018 198.372 187.014 196.859 186.968C196.435 186.956 196.376 187.171 196.378 187.52C196.386 189.133 196.381 190.747 196.381 192.363ZM199.601 184.637C200.428 184.595 201.364 184.583 202.295 184.49C204.076 184.312 205.332 183.416 205.986 181.712C206.319 180.847 206.305 179.956 206.314 179.057C206.34 176.714 204.972 174.794 202.747 174C201.029 173.387 199.257 173.376 197.476 173.425C196.754 173.444 196.431 173.76 196.421 174.486L196.314 183.964C196.309 184.34 196.471 184.502 196.837 184.514L199.601 184.637Z" fill="#94795D"/>
<path fill-rule="evenodd" clip-rule="evenodd" d="M18.203 201.055L18.077 202.685C16.9029 202.685 15.8204 202.676 14.7378 202.688C12.6988 202.709 10.6597 202.742 8.61889 202.771L8.42206 202.783C8.13027 202.748 7.60022 202.748 7.5864 202.662C7.50008 202.177 7.5277 201.668 7.55015 201.165C7.55187 201.108 7.75043 201.036 7.86611 201.008L9.45282 200.654C10.4421 200.397 10.7909 199.97 10.8375 198.948C10.891 197.797 10.9446 196.643 10.9497 195.492C10.9653 192.657 10.948 189.825 10.9601 186.99C10.9618 186.327 10.7322 185.833 10.1141 185.564C9.3796 185.238 8.63997 184.924 7.89546 184.621C7.54324 184.48 7.0857 184.402 7.12714 183.929C7.16858 183.447 7.6123 183.321 8.03013 183.226C9.76015 182.831 11.4919 182.446 13.2167 182.025C13.7727 181.888 14.3045 181.659 14.9692 181.427C15.0037 181.786 15.0676 182.128 15.0607 182.47L14.9588 184.095C14.9571 184.278 15.0521 184.523 15.1885 184.625C15.2713 184.689 15.5493 184.573 15.6874 184.466C17.1619 183.344 18.7227 182.375 20.5028 181.81C23.2601 180.935 25.6273 181.747 27.2848 184.124C27.8683 184.961 27.8701 184.961 28.6798 184.376C30.0697 183.366 31.5235 182.475 33.1499 181.888C36.7204 180.598 40.1511 182.235 41.3925 185.832C41.8449 187.137 42.0175 188.485 42.0141 189.863L41.9813 199.01C41.9795 199.765 42.2299 200.195 42.9481 200.43C43.7544 200.694 44.5901 200.875 45.4983 201.113L45.2876 202.686C44.2551 202.686 43.3055 202.679 42.3559 202.688C40.0354 202.709 37.7149 202.721 35.3961 202.774C34.9921 202.785 34.8868 202.685 34.8661 202.306C34.7988 201.096 34.7884 201.098 35.9279 200.825L36.3112 200.727C37.4249 200.423 37.7961 200.081 37.8047 198.952C37.8306 195.709 37.8979 192.458 37.7339 189.223C37.563 185.866 34.8989 184.079 31.6461 184.939C30.5962 185.227 29.6074 185.703 28.7282 186.344C28.426 186.56 28.369 186.809 28.3932 187.187C28.4847 188.617 28.5417 190.048 28.5538 191.479C28.5745 193.984 28.5434 196.49 28.5538 198.997C28.5572 200.012 28.9043 200.4 29.9074 200.635L31.3974 200.979L31.6737 201.041C31.6944 201.517 31.7134 201.994 31.6909 202.471C31.6771 202.769 31.4458 202.795 31.1868 202.79C29.7382 202.754 28.2879 202.705 26.8393 202.709C25.0765 202.712 23.3154 202.762 21.5543 202.793H21.1399C21.1399 202.288 21.1157 201.804 21.1572 201.322C21.1658 201.207 21.3696 201.044 21.5094 201.008L23.2463 200.64C23.9836 200.459 24.3358 200.081 24.3772 199.332C24.5741 195.861 24.7156 192.389 24.3893 188.92C24.3098 188.235 24.1197 187.568 23.8264 186.944C22.9373 184.979 20.9362 184.159 18.6278 184.749C17.5314 185.029 16.5421 185.531 15.6063 186.165C15.4022 186.291 15.2346 186.467 15.1201 186.678C15.0056 186.888 14.9482 187.125 14.9536 187.365C14.9536 190.827 14.9657 194.288 14.9761 197.748L14.9951 199.083C15.0158 200.014 15.4112 200.504 16.3349 200.704C16.9288 200.839 17.5297 200.93 18.203 201.055Z" fill="#50382B"/>
<path fill-rule="evenodd" clip-rule="evenodd" d="M122.588 181.781C122.855 183.083 122.85 184.254 121.894 185.141C120.944 186.023 119.742 185.726 118.57 185.53C118.679 186.148 118.8 186.672 118.858 187.204C119.285 191.156 117.584 194.09 113.919 195.766C112.534 196.398 111.065 196.633 109.564 196.754C108.818 196.813 108.166 197.382 108.095 197.995C108.022 198.617 108.413 199.256 109.193 199.442C110.113 199.661 111.073 199.724 112.018 199.832C114.045 200.064 116.094 200.169 118.097 200.532C121.125 201.077 122.816 203.721 122.282 206.763C121.807 209.47 120.24 211.44 118.054 212.951C114.371 215.503 110.331 216.249 106.028 214.947C103.568 214.201 101.833 212.583 101.234 209.966C100.933 208.655 101.253 207.469 102.238 206.58C103.411 205.527 104.687 204.587 105.914 203.593L106.311 203.194L105.856 202.875C104.604 202.281 103.602 201.467 103.214 200.055C103.081 199.577 103.219 199.263 103.625 199.017C104.315 198.601 105.003 198.178 105.685 197.748C106.006 197.548 106.323 197.341 106.622 197.11C107.03 196.799 106.993 196.567 106.506 196.388C105.374 195.97 104.367 195.364 103.587 194.432C102.283 192.876 101.914 191.023 102.021 189.067C102.188 186.011 103.848 183.998 106.544 182.703C109.751 181.165 112.967 181.068 116.236 182.47C117.444 182.988 118.718 183.099 120.015 183.009C120.984 182.94 121.83 182.574 122.588 181.781ZM110.773 203.676C108.366 203.655 107.611 203.952 106.199 205.39C104.618 207.003 104.626 209.239 106.204 210.858C107.403 212.086 108.898 212.661 110.56 212.833C112.503 213.034 114.416 212.952 116.18 211.98C118.062 210.939 118.998 209.006 118.575 207.058C118.225 205.451 117.04 204.715 115.599 204.292C113.958 203.812 112.263 203.721 110.773 203.676ZM106.045 188.295C106.134 188.964 106.17 189.64 106.318 190.295C106.703 191.99 107.441 193.48 109.127 194.235C111.108 195.124 113.637 194.742 114.504 191.963C115.096 190.113 115.027 188.115 114.309 186.31C114.004 185.485 113.456 184.772 112.738 184.266C111.018 183.066 107.915 182.907 106.652 185.559C106.241 186.42 106.08 187.337 106.045 188.295Z" fill="#4F382B"/>
<path fill-rule="evenodd" clip-rule="evenodd" d="M81.7529 181.355C81.8168 181.65 81.9446 181.985 81.948 182.322C81.9532 182.962 81.8841 183.603 81.8479 184.243V184.799L82.39 184.385C83.8749 183.162 85.4702 182.121 87.328 181.56C90.681 180.55 94.0305 182.385 95.1234 185.801C95.5378 187.099 95.7018 188.434 95.7174 189.791C95.7519 192.805 95.7726 195.82 95.8037 198.834C95.8141 199.917 95.9384 200.11 96.9622 200.423C97.5448 200.597 98.1391 200.729 98.7406 200.818C99.0704 200.87 99.2119 200.999 99.1947 201.322L99.1981 201.619C99.186 202.868 99.0997 202.925 97.8894 202.921C94.9922 202.916 92.0968 202.933 89.1996 202.957C88.3363 202.964 88.3346 202.99 88.2483 202.137L88.231 201.647C88.2845 200.911 88.3018 200.918 89.0252 200.811C89.5121 200.739 89.9955 200.627 90.4703 200.502C90.959 200.376 91.1938 200.015 91.2594 199.532C91.2922 199.287 91.3353 199.042 91.3336 198.796C91.2922 195.502 91.3457 192.204 91.1661 188.915C91.0211 186.255 88.9907 184.67 86.3197 184.851C85.0322 184.94 83.7945 185.384 82.744 186.134C82.0309 186.633 81.8876 187.353 81.8911 188.128C81.9049 191.208 81.9342 194.288 81.967 197.37C81.9739 198.045 81.9929 198.72 82.0568 199.39C82.1241 200.122 82.3814 200.418 83.0997 200.576C83.7868 200.728 84.4878 200.816 85.2216 200.939L85.2838 201.505C85.3079 202.826 85.1698 202.925 83.887 202.919C80.8914 202.907 77.8958 202.926 74.9019 202.959C74.4306 202.966 74.2303 202.818 74.2424 202.358L74.2355 202.161C74.1578 200.972 74.1923 200.927 75.318 200.734L75.8498 200.627C77.0688 200.352 77.3813 200.027 77.3985 198.79C77.4555 194.868 77.4762 190.949 77.5159 187.028C77.5211 186.465 77.3088 186.028 76.7839 185.795C76.0473 185.473 75.3065 185.16 74.5618 184.856C74.1509 184.687 73.6813 184.58 73.6657 184.012C73.6554 183.611 74.0835 183.257 74.6688 183.138C75.8446 182.9 77.0308 182.701 78.1928 182.41C79.3496 182.121 80.4856 181.735 81.7529 181.355Z" fill="#4F372B"/>
<path fill-rule="evenodd" clip-rule="evenodd" d="M146.525 191.597C146.469 195.259 145.518 198.22 142.928 200.442C139.648 203.261 134.53 204.22 130.347 202.111C128.562 201.212 127.249 199.832 126.395 198.042C125.084 195.288 124.756 192.393 125.44 189.426C126.117 186.493 127.893 184.368 130.552 182.991C133.287 181.577 136.167 181.025 139.204 181.767C143.046 182.705 145.806 185.837 146.356 189.825C146.454 190.524 146.492 191.232 146.525 191.597ZM142.075 193.58L141.927 193.563C141.927 193.218 141.946 192.873 141.923 192.527C141.797 190.376 141.314 188.327 140.067 186.526C138.885 184.82 137.274 183.813 135.178 183.667C132.831 183.501 130.86 184.813 130.167 187.209C129.128 190.808 129.48 194.314 131.307 197.61C132.103 199.047 133.282 200.107 134.862 200.665C137.958 201.754 140.703 200.343 141.509 197.173C141.806 196.003 141.892 194.779 142.075 193.58Z" fill="#4F382B"/>
<path fill-rule="evenodd" clip-rule="evenodd" d="M70.4765 191.88C70.4127 194.508 69.7928 196.937 68.1698 199.048C66.4312 201.31 64.0416 202.519 61.324 203.028C58.1109 203.629 55.0929 203.083 52.5116 200.927C51.2858 199.901 50.4484 198.587 49.8959 197.092C48.9895 194.641 48.7633 192.128 49.321 189.568C49.9166 186.828 51.4636 184.734 53.8618 183.328C56.6347 181.707 59.6268 180.983 62.8227 181.712C66.9319 182.651 69.3042 185.329 70.1813 189.383C70.3574 190.202 70.3816 191.048 70.4765 191.88ZM65.9771 193.613L65.858 193.596V193.102C65.7906 190.692 65.3193 188.396 63.8811 186.393C62.8158 184.906 61.3896 183.974 59.5612 183.713C56.5812 183.288 54.6336 185.056 53.9879 187.458C53.1453 190.595 53.4095 193.694 54.713 196.669C55.5262 198.524 56.8108 199.969 58.7843 200.67C61.861 201.763 64.6477 200.316 65.4263 197.158C65.7129 196.003 65.7993 194.798 65.9771 193.613Z" fill="#4F372B"/>
<path fill-rule="evenodd" clip-rule="evenodd" d="M142.203 57.9158C144.322 64.0399 145.845 70.2918 146.347 76.7699C146.968 84.8087 146.685 92.7924 144.99 100.698L144.772 101.33C144.241 101.332 143.698 101.265 143.179 101.346C138.788 102.036 134.403 102.751 130.015 103.463C125.48 104.198 120.941 104.904 116.414 105.688C114.81 105.964 112.824 105.635 112.177 107.851L111.866 107.957L112.085 94.7002L111.862 62.7139L113.976 62.3513C117.43 61.7868 120.885 61.2118 124.345 60.661C128.472 60.0067 132.602 59.3678 136.732 58.729C138.555 58.4493 140.38 58.1886 142.203 57.9158Z" fill="#439934"/>
<path fill-rule="evenodd" clip-rule="evenodd" d="M107.505 146.604C105.276 144.688 102.969 142.856 100.833 140.839C89.3376 129.996 80.9275 117.232 76.7855 101.843C75.6442 97.6095 74.8846 93.3052 74.6394 88.93C74.4667 85.8671 74.2198 82.7783 74.4374 79.7309C75.0123 71.6282 76.1847 63.6031 78.5604 55.7973L78.6916 55.616C78.923 55.9234 79.2545 56.1962 79.3719 56.5432C81.6924 63.3735 83.9939 70.2107 86.285 77.053C93.4831 98.5504 100.672 120.053 107.883 141.547C108.024 141.967 108.389 142.31 108.651 142.688L107.505 146.604Z" fill="#45A538"/>
<path fill-rule="evenodd" clip-rule="evenodd" d="M142.203 57.9158C140.378 58.1869 138.553 58.4493 136.732 58.729C132.602 59.3679 128.472 60.0067 124.345 60.6611C120.887 61.2101 117.432 61.7851 113.975 62.3514L111.862 62.7139L111.845 61.3362C111.774 60.2035 111.657 59.0709 111.641 57.9383L111.405 36.263C111.349 31.7411 111.266 27.2193 111.175 22.6991C111.128 19.8897 111.047 17.0809 110.931 14.2735C110.862 12.7662 110.619 11.2658 110.522 9.75854C110.465 8.89181 110.541 8.01817 110.56 7.14798C111.638 9.23539 112.693 11.3383 113.799 13.4102C115.548 16.6855 118.337 19.0992 120.849 21.7323C130.77 32.1452 137.812 44.2449 142.203 57.9158Z" fill="#46A037"/>
<path fill-rule="evenodd" clip-rule="evenodd" d="M111.868 107.957L112.178 107.851C112.826 105.635 114.811 105.964 116.415 105.688C120.942 104.904 125.482 104.198 130.017 103.463C134.404 102.753 138.79 102.038 143.181 101.346C143.7 101.265 144.242 101.332 144.774 101.33C143.954 104.258 143.308 107.251 142.267 110.098C141.084 113.326 139.655 116.479 138.137 119.57C135.864 124.178 133.051 128.501 129.758 132.446C127.227 135.489 124.406 138.305 121.579 141.083C120.015 142.617 118.175 143.869 116.459 145.251L116.013 144.947L114.413 143.579L112.757 139.947C111.625 135.71 111.008 131.353 110.918 126.97L110.949 126.231L111.175 123.03C111.249 121.937 111.35 120.846 111.396 119.753C111.562 115.823 111.71 111.89 111.868 107.957Z" fill="#409433"/>
<path fill-rule="evenodd" clip-rule="evenodd" d="M111.867 107.957C111.712 111.89 111.563 115.825 111.396 119.758C111.349 120.852 111.251 121.944 111.175 123.035L110.167 123.416C107.926 116.819 105.683 110.291 103.49 103.747C99.8625 92.9201 96.2799 82.0773 92.6576 71.2466C89.7325 62.5056 86.787 53.7715 83.821 45.0443C83.6812 44.6368 83.2841 44.3157 83.0078 43.9548L89.4652 32.0813C89.6879 32.4663 89.9797 32.8271 90.1195 33.2415C93.1065 42.0815 96.0883 50.9232 99.0441 59.7736C102.891 71.2898 106.712 82.8111 110.555 94.329C110.709 94.7883 110.961 95.213 111.203 95.7293L112.087 94.7002L111.867 107.957Z" fill="#4FAA41"/>
<path fill-rule="evenodd" clip-rule="evenodd" d="M83.0063 43.9548C83.2843 44.3157 83.6814 44.6368 83.8196 45.0443C86.7858 53.7714 89.7313 62.5055 92.6561 71.2466C96.2784 82.0773 99.861 92.9201 103.489 103.747C105.681 110.291 107.924 116.818 110.165 123.416L111.173 123.035L110.947 126.236L110.742 126.973C110.391 130.476 110.096 133.986 109.668 137.483C109.454 139.235 108.996 140.955 108.649 142.688C108.389 142.31 108.023 141.967 107.881 141.547C100.669 120.053 93.4814 98.5505 86.2834 77.053C83.9932 70.2116 81.6888 63.375 79.3702 56.5432C79.2528 56.1962 78.9213 55.9234 78.6899 55.616L83.0063 43.9548Z" fill="#4AA73C"/>
<path fill-rule="evenodd" clip-rule="evenodd" d="M112.085 94.7002L111.201 95.7292C110.959 95.213 110.707 94.7883 110.553 94.329C106.71 82.8111 102.889 71.2898 99.0423 59.7736C96.083 50.9243 93.1081 42.0803 90.1177 33.2415C89.9779 32.8271 89.6861 32.4663 89.4634 32.0812L97.4487 21.5768C97.7008 21.9118 98.0599 22.2105 98.1894 22.5886C100.406 29.0805 102.603 35.5775 104.788 42.0798C106.829 48.1538 108.839 54.2348 110.904 60.2985C111.042 60.7042 111.524 60.9908 111.845 61.3361L111.862 62.7139L112.085 94.7002Z" fill="#57AE47"/>
<path fill-rule="evenodd" clip-rule="evenodd" d="M111.845 61.3361C111.522 60.9925 111.042 60.7059 110.904 60.2985C108.841 54.2348 106.829 48.1538 104.788 42.0798C102.604 35.5775 100.405 29.0804 98.1894 22.5886C98.0599 22.2105 97.7008 21.9118 97.4487 21.5768C100.045 19.0336 102.561 16.3989 105.263 13.9731C107.665 11.8183 109.595 9.50817 109.685 6.10167L109.875 5.42313L110.559 7.14624C110.541 8.01642 110.464 8.89006 110.521 9.7568C110.619 11.2641 110.862 12.7645 110.93 14.2718C111.056 17.0774 111.116 19.8883 111.173 22.6974C111.265 27.2175 111.348 31.7394 111.403 36.2613L111.639 57.9365C111.657 59.0709 111.776 60.2035 111.845 61.3361Z" fill="#60B24F"/>
<path fill-rule="evenodd" clip-rule="evenodd" d="M108.651 142.687C108.998 140.953 109.456 139.233 109.67 137.481C110.098 133.986 110.393 130.475 110.744 126.971L110.832 126.958L110.918 126.973C111.008 131.357 111.626 135.714 112.757 139.95C112.524 140.257 112.197 140.528 112.073 140.874C111.115 143.577 110.21 146.304 109.247 149.006C109.116 149.375 108.746 149.664 108.489 149.986L107.503 146.602L108.651 142.687Z" fill="#A9AA88"/>
<path fill-rule="evenodd" clip-rule="evenodd" d="M108.489 149.988C108.746 149.664 109.116 149.377 109.247 149.008C110.21 146.305 111.115 143.579 112.073 140.875C112.196 140.53 112.524 140.259 112.757 139.952L114.413 143.584C114.086 144.047 113.634 144.467 113.453 144.983L110.283 154.293C110.151 154.667 109.708 154.93 109.407 155.246L108.489 149.988Z" fill="#B6B598"/>
<path fill-rule="evenodd" clip-rule="evenodd" d="M109.407 155.244C109.706 154.928 110.151 154.665 110.283 154.291L113.453 144.981C113.632 144.465 114.086 144.045 114.413 143.583L116.015 144.948C115.241 145.713 114.811 146.597 115.07 147.714L114.583 149.308C114.362 149.581 114.041 149.819 113.933 150.132C112.826 153.301 111.771 156.489 110.656 159.657C110.514 160.058 110.122 160.373 109.848 160.729L109.407 155.244Z" fill="#C2C1A7"/>
<path fill-rule="evenodd" clip-rule="evenodd" d="M109.846 160.727C110.122 160.372 110.514 160.056 110.654 159.655C111.769 156.487 112.826 153.3 113.931 150.13C114.039 149.817 114.361 149.581 114.582 149.306L113.91 156.62C113.73 156.827 113.471 157.008 113.385 157.248L111.151 163.65C110.994 164.087 110.693 164.478 110.459 164.887C110.25 164.614 109.877 164.35 109.859 164.067C109.794 162.958 109.84 161.841 109.846 160.727Z" fill="#CECDB7"/>
<path fill-rule="evenodd" clip-rule="evenodd" d="M110.46 164.888C110.695 164.479 110.996 164.089 111.153 163.652L113.387 157.25C113.473 157.008 113.734 156.829 113.912 156.622L113.929 161.421L112.322 165.543L110.46 164.888Z" fill="#DBDAC7"/>
<path fill-rule="evenodd" clip-rule="evenodd" d="M112.321 165.543L113.929 161.422L114.26 166.297L112.321 165.543Z" fill="#EBE9DC"/>
<path fill-rule="evenodd" clip-rule="evenodd" d="M115.068 147.714C114.811 146.599 115.239 145.715 116.013 144.948L116.458 145.252L115.068 147.714Z" fill="#CECDB7"/>
<path fill-rule="evenodd" clip-rule="evenodd" d="M110.918 126.975L110.832 126.959L110.744 126.973L110.949 126.236L110.918 126.975Z" fill="#4FAA41"/>
</svg>
