<svg width="364" height="223" viewBox="0 0 364 223" fill="none" xmlns="http://www.w3.org/2000/svg">
<g clip-path="url(#clip0_419_314)">
<path d="M179.945 222.357C178.713 222.357 177.563 222.028 176.494 221.454L165.567 214.97C163.923 214.066 164.745 213.738 165.238 213.574C167.456 212.836 167.867 212.671 170.168 211.359C170.414 211.194 170.744 211.276 170.99 211.44L179.371 216.447C179.699 216.611 180.11 216.611 180.356 216.447L213.14 197.486C213.469 197.322 213.634 196.993 213.634 196.584V158.745C213.634 158.334 213.469 158.006 213.14 157.841L180.356 138.963C180.028 138.798 179.617 138.798 179.371 138.963L146.586 157.841C146.258 158.005 146.093 158.416 146.093 158.744V196.583C146.093 196.912 146.258 197.322 146.586 197.486L155.543 202.657C160.39 205.12 163.43 202.247 163.43 199.374V162.027C163.43 161.535 163.841 161.042 164.416 161.042H168.607C169.1 161.042 169.593 161.453 169.593 162.027V199.374C169.593 205.858 166.059 209.634 159.897 209.634C158.007 209.634 156.529 209.634 152.338 207.582L143.711 202.657C141.574 201.427 140.26 199.128 140.26 196.665V158.826C140.26 156.364 141.574 154.065 143.711 152.835L176.494 133.874C178.549 132.725 181.343 132.725 183.397 133.874L216.18 152.835C218.317 154.065 219.632 156.364 219.632 158.826V196.665C219.632 199.128 218.317 201.427 216.18 202.657L183.397 221.618C182.328 222.111 181.095 222.357 179.945 222.357ZM190.052 196.337C175.673 196.337 172.715 189.771 172.715 184.189C172.715 183.697 173.126 183.204 173.701 183.204H177.974C178.466 183.204 178.877 183.533 178.877 184.025C179.535 188.375 181.425 190.509 190.134 190.509C197.036 190.509 199.995 188.95 199.995 185.256C199.995 183.122 199.172 181.563 188.409 180.496C179.452 179.592 173.865 177.623 173.865 170.482C173.865 163.833 179.453 159.893 188.82 159.893C199.336 159.893 204.513 163.505 205.171 171.384C205.171 171.631 205.088 171.877 204.924 172.123C204.759 172.287 204.513 172.451 204.267 172.451H199.994C199.583 172.451 199.172 172.123 199.09 171.713C198.104 167.199 195.557 165.721 188.82 165.721C181.26 165.721 180.356 168.348 180.356 170.317C180.356 172.698 181.425 173.436 191.613 174.75C201.719 176.063 206.485 177.951 206.485 185.01C206.403 192.233 200.487 196.337 190.052 196.337Z" fill="#539E43"/>
<path d="M78.2245 74.3655C78.2245 72.8883 77.4027 71.4921 76.0882 70.7535L41.25 50.7261C40.6741 50.3973 40.0172 50.2332 39.3603 50.1509H39.0312C38.3743 50.1509 37.7167 50.3973 37.1415 50.7261L2.30332 70.7535C0.988112 71.4921 0.166992 72.8876 0.166992 74.3655L0.24946 128.21C0.24946 128.949 0.660375 129.687 1.31727 130.016C1.97488 130.427 2.796 130.427 3.37185 130.016L24.0776 118.196C25.3921 117.458 26.2139 116.062 26.2139 114.585V89.3861C26.2139 87.9089 27.035 86.5134 28.3502 85.7748L37.1415 80.6855C37.7991 80.275 38.5385 80.1103 39.2779 80.1103C40.0172 80.1103 40.7566 80.275 41.3324 80.6855L50.1238 85.7748C51.439 86.5134 52.2601 87.9082 52.2601 89.3861V114.585C52.2601 116.062 53.0819 117.458 54.3964 118.196L75.1021 130.016C75.422 130.217 75.7923 130.324 76.1703 130.324C76.5483 130.324 76.9186 130.217 77.2385 130.016C77.8961 129.687 78.307 128.949 78.307 128.21L78.2245 74.3655ZM245.678 0.246435C245.021 -0.0823839 244.199 -0.0823839 243.624 0.246435C242.967 0.656925 242.556 1.31314 242.556 2.05174V55.4049C242.556 55.897 242.31 56.3892 241.816 56.718C241.324 56.9637 240.83 56.9637 240.338 56.718L231.628 51.7111C230.99 51.348 230.267 51.157 229.533 51.157C228.798 51.157 228.076 51.348 227.437 51.7111L192.599 71.8209C191.284 72.5595 190.463 73.955 190.463 75.4322V115.569C190.463 117.047 191.284 118.443 192.599 119.181L227.437 139.291C228.076 139.654 228.798 139.845 229.533 139.845C230.267 139.845 230.99 139.654 231.628 139.291L266.466 119.181C267.781 118.443 268.603 117.047 268.603 115.569V15.5134C268.603 13.9538 267.781 12.559 266.466 11.8197L245.678 0.246435ZM242.474 102.355C242.474 102.765 242.31 103.093 241.981 103.258L230.067 110.152C229.901 110.233 229.718 110.275 229.533 110.275C229.348 110.275 229.165 110.233 228.998 110.152L217.085 103.258C216.756 103.093 216.591 102.683 216.591 102.355V88.5651C216.591 88.1546 216.756 87.8265 217.085 87.6624L228.998 80.7672C229.165 80.6861 229.348 80.644 229.533 80.644C229.718 80.644 229.901 80.6861 230.067 80.7672L241.981 87.6624C242.31 87.8258 242.474 88.237 242.474 88.5651V102.355ZM361.614 88.237C362.929 87.4984 363.668 86.1029 363.668 84.625V74.8577C363.668 73.3805 362.847 71.985 361.614 71.2464L327.022 51.219C326.384 50.8558 325.662 50.6648 324.927 50.6648C324.192 50.6648 323.47 50.8558 322.831 51.219L287.993 71.328C286.678 72.0666 285.857 73.4622 285.857 74.9394V115.077C285.857 116.554 286.679 117.95 287.993 118.689L322.585 138.388C323.9 139.126 325.461 139.126 326.694 138.388L347.646 126.734C348.303 126.405 348.714 125.666 348.714 124.928C348.714 124.189 348.303 123.45 347.646 123.122L312.643 103.012C311.985 102.601 311.575 101.945 311.575 101.206V88.6482C311.575 87.9096 311.985 87.171 312.643 86.8422L323.571 80.6039C323.891 80.4027 324.261 80.296 324.639 80.296C325.017 80.296 325.387 80.4027 325.707 80.6039L336.635 86.8422C337.293 87.2527 337.703 87.9089 337.703 88.6482V98.4978C337.703 99.2364 338.114 99.975 338.772 100.303C339.092 100.504 339.462 100.611 339.84 100.611C340.218 100.611 340.588 100.504 340.908 100.303L361.614 88.237Z" fill="#333333"/>
<path d="M324.393 86.3486C324.515 86.2683 324.657 86.2254 324.803 86.2254C324.95 86.2254 325.092 86.2683 325.214 86.3486L331.87 90.2063C332.116 90.3711 332.28 90.6168 332.28 90.9449V98.6612C332.28 98.9893 332.117 99.2357 331.87 99.3998L325.214 103.258C325.092 103.338 324.95 103.381 324.803 103.381C324.657 103.381 324.515 103.338 324.393 103.258L317.738 99.3998C317.491 99.2357 317.327 98.9893 317.327 98.6612V90.9457C317.327 90.6168 317.49 90.3704 317.738 90.2071L324.393 86.3486Z" fill="#539E43"/>
<path d="M136.48 51.383C135.841 51.02 135.119 50.8291 134.385 50.8291C133.65 50.8291 132.928 51.02 132.29 51.383L97.6981 71.3273C96.3829 72.0659 95.6436 73.4615 95.6436 74.9387V114.912C95.6436 116.39 96.4654 117.785 97.6981 118.524L132.29 138.47C132.928 138.833 133.65 139.023 134.385 139.023C135.119 139.023 135.841 138.833 136.48 138.47L171.072 118.524C172.387 117.785 173.127 116.39 173.127 114.912V74.9394C173.127 73.4622 172.304 72.0666 171.072 71.328L136.48 51.383Z" fill="url(#paint0_linear_419_314)"/>
</g>
<defs>
<linearGradient id="paint0_linear_419_314" x1="5379.06" y1="1593.08" x2="1593.07" y2="7548.15" gradientUnits="userSpaceOnUse">
<stop stop-color="#41873F"/>
<stop offset="0.3288" stop-color="#418B3D"/>
<stop offset="0.6352" stop-color="#419637"/>
<stop offset="0.9319" stop-color="#3FA92D"/>
<stop offset="1" stop-color="#3FAE2A"/>
</linearGradient>
<clipPath id="clip0_419_314">
<rect width="364" height="223" fill="white"/>
</clipPath>
</defs>
</svg>
