<svg width="325" height="231" viewBox="0 0 325 231" fill="none" xmlns="http://www.w3.org/2000/svg">
<path d="M73.9781 0.0708313C90.5937 23.7552 101.522 53.1948 104 85.6813C105.921 109.771 102.822 133.998 94.9 156.829C99.8842 150.88 106.01 145.99 112.915 142.448C119.821 138.906 127.366 136.783 135.105 136.205C135.782 136.151 136.446 136.124 137.109 136.097C138.193 129.448 143.474 89.3781 123.879 45.6385C109.417 13.3281 83.2542 2.84687 73.9781 0.0708313ZM98.0417 0.571872C98.0417 0.571872 130.623 15.0073 143.081 75.6875C151.301 115.703 143.745 141.175 137.637 153.864C154.262 138.107 175.815 128.57 198.656 126.861C210.302 125.981 221.609 127.132 232.267 130.017C230.913 119.982 224.236 83.7854 195.271 49.85C151.084 -1.91979 98.0417 0.571872 98.0417 0.571872ZM298.689 131.94L56.0219 173.228C62.3084 175.404 67.7259 179.548 71.4704 185.047C75.2149 190.545 77.0868 197.104 76.8083 203.751C76.7027 206.556 76.2199 209.335 75.3729 212.011C76.1177 211.646 111.786 194.746 161.254 184.468C205.102 175.354 238.753 179.593 246.364 180.771C251.15 169.403 258.286 159.175 267.304 150.759C276.321 142.343 287.017 135.93 298.689 131.94ZM214.554 187.162C183.165 187.162 151.707 193.866 124.99 202.952C86.1521 216.169 85.0281 221.206 49.8333 217.076C24.9708 214.165 0 201.977 0 201.977C0 201.977 32.5813 228.654 66.5438 230.78C93.4375 232.473 114.007 219.649 138.518 211.632C174.552 199.838 199.604 198.497 223.194 198.429C262.18 198.321 325 215.072 325 215.072C325 215.072 296.427 200.934 256.845 191.78C242.967 188.651 228.78 187.092 214.554 187.162Z" fill="black"/>
</svg>
