<svg width="280" height="280" viewBox="0 0 280 280" fill="none" xmlns="http://www.w3.org/2000/svg">
<g clip-path="url(#clip0_418_258)">
<path d="M87.7683 90.7783C85.5867 90.7783 83.3117 90.9067 80.9783 91.1867L82.3317 95.3633C84.375 95.165 86.4271 95.0716 88.48 95.0833H89.18L87.78 90.7783H87.7683ZM114.777 94.955L114.497 99.6217C116.83 100.403 119.093 101.232 121.357 102.153L121.66 97.44C121.018 97.09 119.233 96.2267 114.777 94.955ZM56.5833 97.6383C54.7158 98.5975 52.8756 99.609 51.065 100.672L54.3317 105.642C56.1633 104.51 57.925 103.425 59.7683 102.515L56.5833 97.6383ZM90.3 97.895C87.7527 97.8512 85.205 97.9564 82.67 98.21C77.5017 98.6767 72.065 100.182 66.57 102.585C50.0267 109.795 32.9933 124.962 21.8517 143.535C10.71 162.097 6.79 178.535 5.51833 185.57C5.08667 187.927 4.935 189.222 4.935 189.222H60.8183C60.8183 189.222 60.1533 186.188 59.6983 181.312C59.4425 178.472 59.314 175.623 59.3133 172.772C59.3133 166.355 59.955 158.737 62.16 151.095C63.2647 147.168 64.8025 143.377 66.745 139.79C68.7283 136.127 71.19 132.58 74.2817 129.36C77.3733 126.14 81.095 123.235 85.5167 120.773C88.41 119.373 93.66 116.515 101.22 115.068C103.74 114.59 106.505 114.252 109.538 114.182C112.572 114.123 115.862 114.322 119.397 114.882C126.467 116.013 134.54 118.615 143.605 123.515C148.132 125.977 152.915 128.998 157.932 132.708C159.215 131.658 160.393 130.818 160.393 130.818C160.393 130.818 158.107 128.52 154.012 125.148C149.928 121.765 144.06 117.308 136.897 112.98C133.128 110.686 129.241 108.591 125.253 106.703C120.985 104.693 116.584 102.978 112.082 101.57C107.411 100.121 102.626 99.0673 97.7783 98.42C95.3005 98.113 92.8081 97.9378 90.3117 97.895H90.3ZM114.637 117.145L114.368 121.613C116.702 121.683 119.035 121.963 121.368 122.453L121.66 118.078C119.344 117.603 116.997 117.291 114.637 117.145ZM98.0933 118.848C95.9744 119.469 93.8974 120.225 91.875 121.112L93.4967 125.988C95.4799 125.011 97.5354 124.188 99.645 123.527L98.0933 118.848ZM28 119.128C26.1683 120.89 24.3833 122.663 22.7617 124.437L28.21 129.103C29.6917 127.202 31.325 125.288 33.0167 123.527L28 119.128ZM78.6333 129.605C77 131.098 75.53 132.72 74.2583 134.353L77.6533 139.428C78.855 137.667 80.2667 136.045 81.83 134.412L78.6333 129.605ZM90.1717 138.787V189.222H103.752V177.053L115.5 189.222H135.578L119.817 173.308C119.817 173.308 132.183 172.258 132.183 156.275C132.183 140.292 117.192 138.787 117.192 138.787H90.1717ZM151.912 139.16C142.088 139.16 138.775 148.062 138.775 152.308V189.222H152.553V180.378H165.503V189.222H178.873V152.308C178.873 141.552 169.097 139.16 165.702 139.16H151.912ZM185.162 139.16V189.21H199.512V139.16H185.162ZM205.38 139.16V189.222H238.98V176.272H219.66V139.16H205.38ZM256.235 139.16C250.577 139.16 243.017 143.815 243.017 152.507V156.975C243.017 165.678 250.507 170.123 256.235 170.123C272.148 170.193 252.42 170.123 267.12 170.123V176.342L243.728 176.412V189.222H266.852C271.588 189.222 279.72 185.757 280 176.073V171.127C280 162.843 273.222 157.955 266.852 157.955H255.325V152.028H278.157V139.16H256.235ZM66.1267 149.333C65.2639 151.878 64.5548 154.473 64.0033 157.103L69.72 161.63C70.0117 158.877 70.525 156.123 71.2367 153.358L66.1267 149.333ZM156.788 151.083H161.537C165.352 151.083 165.433 153.837 165.433 153.837V166.087H152.483V153.837C152.483 153.837 152.472 151.083 156.788 151.083ZM103.752 151.445H114.637C114.637 151.445 117.693 152.577 117.693 157.162C117.693 161.77 114.567 162.983 114.567 162.983H103.752V151.445ZM3.535 152.157C2.19333 155.19 0.711667 158.725 0 160.638L8.13167 163.613C9.065 161.21 10.535 157.733 11.6667 155.12L3.535 152.157ZM62.9417 175.058C63.0817 178.803 63.4433 181.872 63.805 183.983L72.275 187.017C71.5623 183.986 71.0016 180.922 70.595 177.835L62.9417 175.058Z" fill="black"/>
</g>
<defs>
<clipPath id="clip0_418_258">
<rect width="280" height="280" fill="white"/>
</clipPath>
</defs>
</svg>
