<svg width="244" height="244" viewBox="0 0 244 244" fill="none" xmlns="http://www.w3.org/2000/svg">
<g clip-path="url(#clip0_419_301)">
<path fill-rule="evenodd" clip-rule="evenodd" d="M122 0.375C146.055 0.375 169.57 7.50818 189.571 20.8725C209.572 34.2368 225.161 53.2321 234.367 75.4561C243.572 97.6802 245.981 122.135 241.288 145.728C236.595 169.321 225.011 190.992 208.002 208.002C190.992 225.011 169.321 236.595 145.728 241.288C122.135 245.981 97.6802 243.572 75.4561 234.367C53.2321 225.161 34.2368 209.572 20.8725 189.571C7.50818 169.57 0.375 146.055 0.375 122C0.375 89.743 13.189 58.8072 35.9981 35.9981C58.8072 13.189 89.743 0.375 122 0.375Z" fill="#CC6699"/>
<path d="M198.294 52.4305C192.786 30.8334 156.967 23.7617 123.068 35.7679C101.839 42.9016 82.2247 54.1523 65.3487 68.8759C46.6793 86.3378 43.6995 101.541 44.9244 107.892C49.2681 130.305 79.9611 144.952 92.584 155.82V155.881C88.8658 157.714 61.6218 171.519 55.2278 185.592C48.5037 200.465 56.2963 211.134 61.4654 212.567C69.2261 214.436 77.377 213.828 84.7746 210.828C92.1722 207.829 98.4453 202.589 102.714 195.844C106.241 190.379 108.448 184.167 109.16 177.702C109.872 171.236 109.069 164.693 106.814 158.592C112.894 157.047 119.215 156.684 125.431 157.523C146.768 160.017 150.955 173.334 150.156 178.912C149.78 180.897 148.981 182.778 147.813 184.427C146.646 186.076 145.136 187.454 143.389 188.468C141.894 189.398 141.434 189.71 141.564 190.405C141.747 191.404 142.433 191.37 143.71 191.152C146.916 190.143 149.742 188.185 151.813 185.538C153.885 182.891 155.107 179.678 155.316 176.323C155.829 163.292 143.31 148.645 121.14 149.018C114.701 148.834 108.275 149.715 102.123 151.624C101.815 151.273 101.502 150.925 101.185 150.582C87.4758 135.961 62.143 125.614 63.2116 105.954C63.6025 98.8044 66.0872 79.9873 111.862 57.1565C149.392 38.4523 179.433 43.604 184.628 55.0107C192.047 71.3084 168.574 101.584 129.601 105.954C125.294 106.829 120.845 106.722 116.584 105.642C112.324 104.562 108.361 102.537 104.99 99.7166C102.94 97.4578 102.635 97.3623 101.871 97.7793C100.629 98.4656 101.419 100.464 101.871 101.645C103.363 104.335 105.378 106.699 107.796 108.6C110.214 110.5 112.987 111.899 115.953 112.713C131.276 116.043 147.258 114.462 161.632 108.196C185.271 99.0824 203.706 73.6714 198.294 52.4305ZM97.8313 162.51C99.5568 168.458 99.469 174.786 97.5793 180.684C97.3766 181.298 97.1537 181.906 96.9104 182.508C96.6672 183.111 96.4036 183.69 96.1198 184.246C94.6578 187.237 92.7639 189.998 90.499 192.438C83.4361 200.144 73.5584 203.063 69.3276 200.605C64.758 197.955 67.0428 187.087 75.2351 178.425C81.5299 172.201 88.7874 167.032 96.728 163.118L97.8313 162.51Z" fill="white"/>
</g>
<defs>
<clipPath id="clip0_419_301">
<rect width="244" height="244" fill="white"/>
</clipPath>
</defs>
</svg>
