<svg width="250" height="250" viewBox="0 0 250 250" fill="none" xmlns="http://www.w3.org/2000/svg">
<g clip-path="url(#clip0_420_356)">
<path d="M191.406 0H58.5938C26.2333 0 0 26.2333 0 58.5938V191.406C0 223.767 26.2333 250 58.5938 250H191.406C223.767 250 250 223.767 250 191.406V58.5938C250 26.2333 223.767 0 191.406 0Z" fill="#4353FF"/>
<path d="M165.142 101.012C165.142 101.012 151.65 143.279 150.653 146.868C150.255 143.346 140.419 67.3828 140.419 67.3828C117.424 67.3828 105.195 83.7314 98.6816 101.012C98.6816 101.012 82.2666 143.412 80.9375 146.935C80.8711 143.611 78.4121 101.41 78.4121 101.41C77.0156 80.209 57.6758 67.3828 41.9922 67.3828L60.8672 182.424C84.9248 182.357 97.8848 166.075 104.663 148.729C104.663 148.729 119.085 111.312 119.684 109.651C119.816 111.246 130.051 182.424 130.051 182.424C154.176 182.424 167.202 167.205 174.18 150.523L208.008 67.3828C184.148 67.3828 171.588 83.665 165.142 101.012Z" fill="white"/>
</g>
<defs>
<clipPath id="clip0_420_356">
<rect width="250" height="250" fill="white"/>
</clipPath>
</defs>
</svg>